<svg xmlns="http://www.w3.org/2000/svg" xmlns:xlink="http://www.w3.org/1999/xlink" xmlns:inkscape="http://www.inkscape.org/namespaces/inkscape" version="1.1" width="390.55125" height="142.99326" viewBox="0 0 390.55125 142.99326">
<defs>
<g id="font_1_53">
<path transform="matrix(.001,0,0,.001,0,0)" d="M181 583H377C394 583 397 584 400 592L438 681 429 688C414 668 405 662 383 662H174L65 425C64 423 64 422 64 420 64 414 68 412 76 412 108 412 147 405 189 392 304 355 356 294 356 194 356 98 296 23 217 23 197 23 181 30 151 52 119 76 97 85 74 85 46 85 32 73 32 48 32 10 78-13 154-13 237-13 309 13 360 64 405 109 426 166 426 242 426 314 407 360 358 410 314 454 257 477 139 498L181 583Z"/>
</g>
<g id="font_1_48">
<path transform="matrix(.001,0,0,.001,0,0)" d="M254 676C199 676 157 660 120 624 62 568 24 453 24 336 24 226 57 110 104 54 141 10 192-13 250-13 301-13 344 3 380 38 438 93 476 209 476 330 476 535 385 676 254 676ZM251 650C335 650 380 537 380 328 380 119 336 12 250 12 164 12 120 119 120 327 120 540 165 650 251 650Z"/>
</g>
<g id="font_1_49">
<path transform="matrix(.001,0,0,.001,0,0)" d="M118 0H394V15C317 15 300 26 299 74V674L291 676 111 585V571C150 586 174 593 183 593 204 593 213 578 213 546V93C211 30 194 16 118 15V0Z"/>
</g>
<g id="font_1_82">
<path transform="matrix(.001,0,0,.001,0,0)" d="M659 19C621 22 601 32 572 66L366 319C493 344 547 394 547 486 547 529 534 566 508 595 470 636 386 662 293 662H17V643C91 635 101 626 102 553V120C101 35 92 25 17 19V0H294V19C217 24 205 36 204 109V306L260 308 498 0H659V19ZM204 589C204 617 215 625 255 625 380 625 438 582 438 488 438 438 417 396 381 377 335 351 300 345 204 343V589Z"/>
</g>
<g id="font_1_76">
<path transform="matrix(.001,0,0,.001,0,0)" d="M294 662H12V643C85 638 97 625 99 553V109C97 37 84 23 12 19V0H550L598 174H573C526 69 483 43 354 39H287C210 41 202 44 201 80V553C203 626 216 639 294 643V662Z"/>
</g>
<g id="font_1_32">
</g>
<g id="font_1_83">
<path transform="matrix(.001,0,0,.001,0,0)" d="M447 676H426C422 654 411 642 394 642 384 642 367 646 350 654 313 668 276 676 243 676 201 676 157 659 124 630 89 599 71 557 71 505 71 425 115 369 227 310 299 271 351 231 376 193 385 180 390 159 390 134 390 68 340 22 267 22 177 22 115 77 65 199H42L72-12H94C95 6 107 20 122 20 133 20 150 16 169 9 207-5 248-13 287-13 403-13 491 65 491 169 491 251 436 315 304 387 199 444 157 488 157 543 157 598 199 635 261 635 306 635 348 616 383 580 414 548 428 522 444 463H469L447 676Z"/>
</g>
<g id="font_1_116">
<path transform="matrix(.001,0,0,.001,0,0)" d="M255 450H154V566C154 576 152 579 147 579 89 495 59 461 30 444 19 437 13 431 13 425 13 422 14 420 17 418H70V117C70 33 100-9 159-9 208-9 246 14 279 66L266 77C244 51 228 42 206 42 169 42 154 69 154 132V418H255V450Z"/>
</g>
<g id="font_1_101">
<path transform="matrix(.001,0,0,.001,0,0)" d="M408 164C360 88 317 59 253 59 196 59 153 88 124 145 106 183 99 215 97 277H405C397 342 387 371 362 403 332 439 286 460 234 460 184 460 137 442 99 408 52 367 25 296 25 214 25 76 97-9 212-9 307-9 382 49 424 157L408 164ZM99 309C110 387 144 424 205 424 266 424 290 396 303 309H99Z"/>
</g>
<g id="font_1_112">
<path transform="matrix(.001,0,0,.001,0,0)" d="M5-216H247V-198C172-197 160-187 159-123V33C195 0 218-9 260-9 379-9 470 102 470 247 470 371 400 460 303 460 247 460 203 436 159 381V458L153 460C99 439 64 426 9 409V393C18 394 24 394 34 394 68 394 75 384 75 337V-130C75-183 64-193 5-199V-216ZM159 334C159 364 215 400 261 400 335 400 384 324 384 207 384 97 335 22 263 22 216 22 159 58 159 88V334Z"/>
</g>
<clipPath id="clip_2">
<path transform="matrix(1,0,0,-1,0,142.99326)" d="M26.518126 32.72125H123.56161V118.653247H26.518126Z"/>
</clipPath>
<g id="font_1_46">
<path transform="matrix(.001,0,0,.001,0,0)" d="M125 100C95 100 70 75 70 43 70 14 95-10 124-10 155-10 181 13 181 43 181 74 155 100 125 100Z"/>
</g>
<clipPath id="clip_3">
<path transform="matrix(1,0,0,-1,0,142.99326)" d="M26.518126 32.72125H123.56161V118.653247H26.518126Z"/>
</clipPath>
<g id="font_1_50">
<path transform="matrix(.001,0,0,.001,0,0)" d="M475 137 462 142C425 84 414 77 367 76H128L296 252C385 345 424 421 424 499 424 599 343 676 239 676 184 676 132 654 95 614 63 580 48 548 31 477L52 472C92 570 127 602 197 602 282 602 338 545 338 461 338 382 292 290 208 201L30 12V0H420L475 137Z"/>
</g>
<clipPath id="clip_4">
<path transform="matrix(1,0,0,-1,0,142.99326)" d="M26.518126 32.72125H123.56161V118.653247H26.518126Z"/>
</clipPath>
<g id="font_1_52">
<path transform="matrix(.001,0,0,.001,0,0)" d="M472 231H370V676H326L12 231V167H293V0H370V167H472V231ZM292 231H52L292 574V231Z"/>
</g>
<clipPath id="clip_5">
<path transform="matrix(1,0,0,-1,0,142.99326)" d="M26.518126 32.72125H123.56161V118.653247H26.518126Z"/>
</clipPath>
<g id="font_1_54">
<path transform="matrix(.001,0,0,.001,0,0)" d="M446 684C332 674 274 655 201 604 93 527 34 413 34 279 34 192 61 104 104 54 142 10 196-13 258-13 382-13 468 81 468 219 468 348 396 428 279 428 235 428 215 421 152 383 179 534 291 642 448 668L446 684ZM242 382C329 382 378 310 378 185 378 75 339 14 269 14 181 14 127 108 127 263 127 314 135 342 155 357 176 373 207 382 242 382Z"/>
</g>
<clipPath id="clip_6">
<path transform="matrix(1,0,0,-1,0,142.99326)" d="M26.518126 32.72125H123.56161V118.653247H26.518126Z"/>
</clipPath>
<g id="font_1_56">
<path transform="matrix(.001,0,0,.001,0,0)" d="M290 371C390 425 424 466 424 534 424 617 353 676 252 676 143 676 62 609 62 518 62 453 81 424 186 332 77 249 56 220 56 151 56 53 134-13 248-13 368-13 445 52 445 155 445 232 411 280 290 371ZM272 268C345 216 369 180 369 124 369 59 324 14 259 14 183 14 132 72 132 158 132 223 153 264 212 312L272 268ZM261 389C172 447 136 493 136 549 136 607 181 648 244 648 312 648 355 604 355 535 355 474 329 434 261 389Z"/>
</g>
<g id="font_1_119">
<path transform="matrix(.001,0,0,.001,0,0)" d="M571 450V435C605 428 615 421 615 404 615 389 609 365 598 338L508 116 424 340C407 386 407 386 407 399 407 421 418 428 465 435V450H262V435C299 431 311 419 331 366 336 352 345 327 351 310L260 111 161 372C157 382 155 392 155 402 155 423 166 431 201 435V450H21V435C44 433 52 423 74 372L209 30C221 0 229-13 235-13 240-13 248-1 260 25L372 265 463 29C478-8 480-13 487-13 494-13 499-4 515 35L653 381C671 423 674 428 694 435V450H571Z"/>
</g>
<g id="font_1_97">
<path transform="matrix(.001,0,0,.001,0,0)" d="M442 66C425 52 413 47 398 47 375 47 368 61 368 105V300C368 352 363 381 348 405 326 441 283 460 224 460 130 460 56 411 56 348 56 325 75 305 99 305 123 305 144 325 144 347 144 351 143 356 142 363 140 372 139 380 139 387 139 414 171 436 211 436 260 436 287 407 287 353V292C134 231 116 222 73 184 51 164 37 130 37 97 37 34 81-9 142-9 186-9 227 11 288 63 293 10 311-9 352-9 386-9 407 2 442 40V66ZM287 123C287 93 282 82 261 70 236 56 209 48 188 48 153 48 125 82 125 125V129C126 189 170 227 287 268V123Z"/>
</g>
<g id="font_1_114">
<path transform="matrix(.001,0,0,.001,0,0)" d="M5 0H245V15C178 17 162 31 160 90V315C160 347 202 397 230 397 236 397 245 392 256 382 271 367 283 362 296 362 320 362 335 379 335 407 335 440 314 460 280 460 238 460 210 438 160 366V458L155 460C99 438 63 424 7 406V390C21 393 30 394 42 394 67 394 76 378 76 334V84C74 32 68 26 5 15V0Z"/>
</g>
<g id="font_1_100">
<path transform="matrix(.001,0,0,.001,0,0)" d="M491 58C478 57 472 57 468 57 433 57 424 68 424 114V681L419 683C372 667 338 656 272 639V623C280 624 285 624 294 624 331 624 340 614 340 573V417C302 449 275 460 235 460 120 460 27 347 27 205 27 77 101-9 212-9 268-9 306 10 340 57V-6L344-9 491 42V58ZM340 102C340 95 333 83 323 72 306 52 280 42 251 42 167 42 113 122 113 246 113 358 162 432 238 432 292 432 340 385 340 332V102Z"/>
</g>
<clipPath id="clip_7">
<path transform="matrix(1,0,0,-1,0,142.99326)" d="M26.518126 32.72125H123.56161V118.653247H26.518126Z"/>
</clipPath>
<clipPath id="clip_8">
<path transform="matrix(1,0,0,-1,0,142.99326)" d="M26.518126 32.72125H123.56161V118.653247H26.518126Z"/>
</clipPath>
<clipPath id="clip_9">
<path transform="matrix(1,0,0,-1,0,142.99326)" d="M26.518126 32.72125H123.56161V118.653247H26.518126Z"/>
</clipPath>
<clipPath id="clip_10">
<path transform="matrix(1,0,0,-1,0,142.99326)" d="M26.518126 32.72125H123.56161V118.653247H26.518126Z"/>
</clipPath>
<clipPath id="clip_11">
<path transform="matrix(1,0,0,-1,0,142.99326)" d="M26.518126 32.72125H123.56161V118.653247H26.518126Z"/>
</clipPath>
<clipPath id="clip_12">
<path transform="matrix(1,0,0,-1,0,142.99326)" d="M26.518126 32.72125H123.56161V118.653247H26.518126Z"/>
</clipPath>
<clipPath id="clip_13">
<path transform="matrix(1,0,0,-1,0,142.99326)" d="M156.55638 32.72125H253.59986V118.653247H156.55638Z"/>
</clipPath>
<g id="font_1_107">
<path transform="matrix(.001,0,0,.001,0,0)" d="M7 0H241V15L221 16C179 19 167 30 166 67V251L306 64C310 59 313 54 316 51 324 41 327 35 327 30 327 21 318 15 306 15H287V0H505V15C461 18 430 37 388 88L235 282 264 309C389 421 416 437 480 435V450H276V436C315 435 326 431 326 418 326 409 317 396 303 383L166 261V681L162 683C123 671 94 662 37 647L7 639V623C20 624 29 625 39 625 73 625 82 612 82 564V82C81 29 78 26 7 15V0Z"/>
</g>
<clipPath id="clip_14">
<path transform="matrix(1,0,0,-1,0,142.99326)" d="M156.55638 32.72125H253.59986V118.653247H156.55638Z"/>
</clipPath>
<clipPath id="clip_15">
<path transform="matrix(1,0,0,-1,0,142.99326)" d="M156.55638 32.72125H253.59986V118.653247H156.55638Z"/>
</clipPath>
<g id="font_1_51">
<path transform="matrix(.001,0,0,.001,0,0)" d="M153 330C212 330 235 328 258 319 321 296 359 240 359 171 359 86 303 22 229 22 201 22 181 29 144 53 115 71 98 78 81 78 58 78 43 64 43 43 43 8 86-13 156-13 232-13 311 12 359 53 406 94 431 152 431 219 431 271 415 317 387 348 366 370 347 382 304 401 372 448 397 485 397 539 397 621 334 676 241 676 191 676 147 659 111 627 81 599 66 574 45 514L60 510C100 584 145 616 208 616 274 616 318 573 318 509 318 473 303 438 278 412 248 382 220 367 152 343L153 330Z"/>
</g>
<clipPath id="clip_16">
<path transform="matrix(1,0,0,-1,0,142.99326)" d="M156.55638 32.72125H253.59986V118.653247H156.55638Z"/>
</clipPath>
<g id="font_1_84">
<path transform="matrix(.001,0,0,.001,0,0)" d="M452 19C370 23 357 35 356 109V620H410C526 618 547 601 569 492H593L587 662H23L17 492H41C64 601 85 618 200 620H254V120C253 34 244 24 160 19V0H452V19Z"/>
</g>
<g id="font_1_111">
<path transform="matrix(.001,0,0,.001,0,0)" d="M250 460C119 460 29 364 29 226 29 90 122-9 248-9 374-9 470 95 470 234 470 366 378 460 250 460ZM237 432C321 432 380 336 380 199 380 85 335 18 260 18 221 18 184 42 163 82 135 134 119 204 119 275 119 370 165 432 237 432Z"/>
</g>
<g id="font_1_108">
<path transform="matrix(.001,0,0,.001,0,0)" d="M21 0H257V15C194 18 183 28 182 84V681L178 683C127 667 90 656 19 639V623H25C36 624 48 625 56 625 88 625 98 611 98 564V87C97 33 83 19 21 15V0Z"/>
</g>
<g id="font_1_115">
<path transform="matrix(.001,0,0,.001,0,0)" d="M315 314 311 451H300C295 443 290 440 284 440 278 440 268 442 257 447 234 455 211 460 187 460 108 460 51 408 51 336 51 280 83 240 168 192L226 159C261 139 278 115 278 84 278 40 246 12 195 12 126 12 91 50 68 152H52V-3H65C72 6 76 8 88 8 99 8 111 6 134 0 161-5 187-9 207-9 285-9 348 48 348 118 348 168 324 201 264 237L156 301C128 318 113 342 113 369 113 410 144 437 190 437 247 437 277 404 300 314H315Z"/>
</g>
<g id="font_1_110">
<path transform="matrix(.001,0,0,.001,0,0)" d="M18 0H230V15C180 18 164 31 164 67V348C212 393 234 405 267 405 316 405 340 374 340 308V99C338 34 326 18 277 15V0H485V15C436 20 425 32 424 81V310C424 404 380 460 306 460 260 460 229 443 161 379V458L154 460C102 441 68 430 16 415V398C23 401 32 402 43 402 71 402 80 387 80 338V90C79 31 68 18 18 15V0Z"/>
</g>
<clipPath id="clip_17">
<path transform="matrix(1,0,0,-1,0,142.99326)" d="M156.55638 32.72125H253.59986V118.653247H156.55638Z"/>
</clipPath>
<clipPath id="clip_18">
<path transform="matrix(1,0,0,-1,0,142.99326)" d="M156.55638 32.72125H253.59986V118.653247H156.55638Z"/>
</clipPath>
<clipPath id="clip_19">
<path transform="matrix(1,0,0,-1,0,142.99326)" d="M156.55638 32.72125H253.59986V118.653247H156.55638Z"/>
</clipPath>
<clipPath id="clip_20">
<path transform="matrix(1,0,0,-1,0,142.99326)" d="M156.55638 32.72125H253.59986V118.653247H156.55638Z"/>
</clipPath>
<clipPath id="clip_21">
<path transform="matrix(1,0,0,-1,0,142.99326)" d="M156.55638 32.72125H253.59986V118.653247H156.55638Z"/>
</clipPath>
<clipPath id="clip_22">
<path transform="matrix(1,0,0,-1,0,142.99326)" d="M156.55638 32.72125H253.59986V118.653247H156.55638Z"/>
</clipPath>
<clipPath id="clip_23">
<path transform="matrix(1,0,0,-1,0,142.99326)" d="M286.59465 32.72125H383.63813V118.653247H286.59465Z"/>
</clipPath>
<clipPath id="clip_24">
<path transform="matrix(1,0,0,-1,0,142.99326)" d="M286.59465 32.72125H383.63813V118.653247H286.59465Z"/>
</clipPath>
<clipPath id="clip_25">
<path transform="matrix(1,0,0,-1,0,142.99326)" d="M286.59465 32.72125H383.63813V118.653247H286.59465Z"/>
</clipPath>
<g id="font_1_67">
<path transform="matrix(.001,0,0,.001,0,0)" d="M620 451 611 676H590C584 655 568 643 548 643 539 643 524 646 509 651 460 668 410 676 363 676 281 676 198 645 136 590 66 528 28 436 28 326 28 122 161-13 360-13 473-13 573 32 633 113L615 131C542 60 475 30 392 30 329 30 273 50 230 88 175 137 144 227 144 339 144 520 237 636 382 636 439 636 491 615 531 576 563 544 578 516 597 451H620Z"/>
</g>
<g id="font_1_69">
<path transform="matrix(.001,0,0,.001,0,0)" d="M597 169H569C521 63 476 38 333 37H306C202 40 201 41 201 80V327H355C439 325 452 313 465 231H488V463H465C453 382 439 370 355 368H201V590C202 620 206 624 234 624H369C485 622 505 608 521 519H546L543 662H12V643C85 638 97 625 99 553V109C97 37 84 23 12 19V0H552L597 169Z"/>
</g>
<g id="font_1_105">
<path transform="matrix(.001,0,0,.001,0,0)" d="M16 0H253V15C187 20 180 29 179 102V457L175 460 20 405V390L28 391C40 393 52 394 62 394 86 394 95 378 95 334V102C93 28 84 18 16 15V0ZM128 683C101 683 78 660 78 632 78 603 100 581 128 581 158 581 180 603 180 632 180 661 157 683 128 683Z"/>
</g>
<clipPath id="clip_26">
<path transform="matrix(1,0,0,-1,0,142.99326)" d="M286.59465 32.72125H383.63813V118.653247H286.59465Z"/>
</clipPath>
<clipPath id="clip_27">
<path transform="matrix(1,0,0,-1,0,142.99326)" d="M286.59465 32.72125H383.63813V118.653247H286.59465Z"/>
</clipPath>
<clipPath id="clip_28">
<path transform="matrix(1,0,0,-1,0,142.99326)" d="M286.59465 32.72125H383.63813V118.653247H286.59465Z"/>
</clipPath>
<clipPath id="clip_29">
<path transform="matrix(1,0,0,-1,0,142.99326)" d="M286.59465 32.72125H383.63813V118.653247H286.59465Z"/>
</clipPath>
<clipPath id="clip_30">
<path transform="matrix(1,0,0,-1,0,142.99326)" d="M286.59465 32.72125H383.63813V118.653247H286.59465Z"/>
</clipPath>
<clipPath id="clip_31">
<path transform="matrix(1,0,0,-1,0,142.99326)" d="M286.59465 32.72125H383.63813V118.653247H286.59465Z"/>
</clipPath>
<g id="font_1_68">
<path transform="matrix(.001,0,0,.001,0,0)" d="M16 0H300C416 0 521 33 583 89 648 148 685 237 685 334 685 424 656 502 600 557 532 626 423 662 286 662H16V643C95 636 103 628 104 553V109C103 36 91 24 16 19V0ZM206 586C206 617 216 625 258 625 345 625 409 609 457 575 535 521 576 435 576 327 576 209 535 125 454 78 403 49 345 37 258 37 218 37 206 46 206 78V586Z"/>
</g>
<g id="font_1_72">
<path transform="matrix(.001,0,0,.001,0,0)" d="M19 0H297V19C222 25 210 37 209 109V315H512V120C511 35 502 24 424 19V0H702V19C627 25 615 37 614 109V553C615 626 625 636 702 643V662H424V643C501 637 511 627 512 553V359H209V553C210 626 220 636 297 643V662H19V643C96 637 106 627 107 553V120C106 35 97 24 19 19V0Z"/>
</g>
<g id="font_1_121">
<path transform="matrix(.001,0,0,.001,0,0)" d="M475 450H340V435C372 435 388 426 388 410 388 406 387 400 384 393L287 117 172 370C166 384 162 398 162 408 162 426 177 433 220 435V450H14V436C40 432 57 421 65 404L179 158C191 131 192 130 197 120 225 70 241 33 241 18 241 2 218-58 201-89 186-114 165-133 151-133 145-133 136-131 125-126 107-119 89-115 73-115 49-115 30-134 30-159 30-192 61-217 104-217 172-217 218-162 273-17L427 390C440 422 451 432 475 435V450Z"/>
</g>
<g id="font_1_98">
<path transform="matrix(.001,0,0,.001,0,0)" d="M153 681 148 683C107 669 80 660 32 647L3 639V623C9 624 12 624 20 624 60 624 69 615 69 573V54C69 23 153-9 234-9 366-9 468 100 468 243 468 367 392 460 292 460 231 460 173 425 153 375V681ZM153 322C153 361 200 397 252 397 280 397 305 387 326 368 358 337 380 269 380 197 380 86 332 22 250 22 198 22 153 44 153 70V322Z"/>
</g>
<g id="font_1_80">
<path transform="matrix(.001,0,0,.001,0,0)" d="M16 643C90 635 99 626 100 553V120C99 35 92 26 16 19V0H296V19C217 21 203 35 202 109V291C228 289 245 288 271 288 350 288 403 298 446 322 506 354 542 415 542 481 542 523 528 561 501 590 461 634 374 662 280 662H16V643ZM202 591C202 618 209 625 236 625 371 625 433 578 433 475 433 378 374 328 259 328 239 328 225 329 202 331V591Z"/>
</g>
</defs>
<path transform="matrix(1,0,0,-1,0,142.99326)" d="M0 0H390.55125V142.99326H0Z" fill="#ffffff"/>
<path transform="matrix(1,0,0,-1,0,142.99326)" d="M26.518126 32.72125H123.5616V118.65325H26.518126Z" fill="#ffffff"/>
<path transform="matrix(1,0,0,-1,0,142.99326)" d="M58.440324 29.72125V26.72125"/>
<path transform="matrix(1,0,0,-1,0,142.99326)" stroke-width=".7" stroke-linecap="butt" stroke-linejoin="round" fill="none" stroke="#000000" d="M58.440324 29.72125V26.72125"/>
<use data-text="5" xlink:href="#font_1_53" transform="matrix(9,0,0,-9,53.940324,126.272)"/>
<use data-text="0" xlink:href="#font_1_48" transform="matrix(9,0,0,-9,58.440324,126.272)"/>
<path transform="matrix(1,0,0,-1,0,142.99326)" d="M90.36252 29.72125V26.72125"/>
<path transform="matrix(1,0,0,-1,0,142.99326)" stroke-width=".7" stroke-linecap="butt" stroke-linejoin="round" fill="none" stroke="#000000" d="M90.36252 29.72125V26.72125"/>
<use data-text="1" xlink:href="#font_1_49" transform="matrix(9,0,0,-9,83.61252,126.272)"/>
<use data-text="0" xlink:href="#font_1_48" transform="matrix(9,0,0,-9,88.11252,126.272)"/>
<use data-text="0" xlink:href="#font_1_48" transform="matrix(9,0,0,-9,92.61252,126.272)"/>
<path transform="matrix(1,0,0,-1,0,142.99326)" d="M122.28471 29.72125V26.72125"/>
<path transform="matrix(1,0,0,-1,0,142.99326)" stroke-width=".7" stroke-linecap="butt" stroke-linejoin="round" fill="none" stroke="#000000" d="M122.28471 29.72125V26.72125"/>
<use data-text="1" xlink:href="#font_1_49" transform="matrix(9,0,0,-9,115.53471,126.272)"/>
<use data-text="5" xlink:href="#font_1_53" transform="matrix(9,0,0,-9,120.03471,126.272)"/>
<use data-text="0" xlink:href="#font_1_48" transform="matrix(9,0,0,-9,124.53471,126.272)"/>
<use data-text="R" xlink:href="#font_1_82" transform="matrix(10,0,0,-10,58.508615,139.38138)"/>
<use data-text="L" xlink:href="#font_1_76" transform="matrix(10,0,0,-10,65.17861,139.38138)"/>
<use data-text=" " xlink:href="#font_1_32" transform="matrix(10,0,0,-10,71.28861,139.38138)"/>
<use data-text="S" xlink:href="#font_1_83" transform="matrix(10,0,0,-10,73.78861,139.38138)"/>
<use data-text="t" xlink:href="#font_1_116" transform="matrix(10,0,0,-10,79.34862,139.38138)"/>
<use data-text="e" xlink:href="#font_1_101" transform="matrix(10,0,0,-10,82.12862,139.38138)"/>
<use data-text="p" xlink:href="#font_1_112" transform="matrix(10,0,0,-10,86.56862,139.38138)"/>
<g clip-path="url(#clip_2)">
<path transform="matrix(1,0,0,-1,0,142.99326)" stroke-width=".6" stroke-linecap="square" stroke-linejoin="round" fill="none" stroke="#e9ebed" d="M26.518126 33.8976H123.5616"/>
</g>
<path transform="matrix(1,0,0,-1,0,142.99326)" d="M23.518126 33.8976H20.518126"/>
<path transform="matrix(1,0,0,-1,0,142.99326)" stroke-width=".7" stroke-linecap="butt" stroke-linejoin="round" fill="none" stroke="#000000" d="M23.518126 33.8976H20.518126"/>
<use data-text="0" xlink:href="#font_1_48" transform="matrix(7,0,0,-7,10.768125,111.681598)"/>
<use data-text="." xlink:href="#font_1_46" transform="matrix(7,0,0,-7,14.268125,111.681598)"/>
<use data-text="0" xlink:href="#font_1_48" transform="matrix(7,0,0,-7,16.018124,111.681598)"/>
<g clip-path="url(#clip_3)">
<path transform="matrix(1,0,0,-1,0,142.99326)" stroke-width=".6" stroke-linecap="square" stroke-linejoin="round" fill="none" stroke="#e9ebed" d="M26.518126 53.89504H123.5616"/>
</g>
<path transform="matrix(1,0,0,-1,0,142.99326)" d="M23.518126 53.89504H20.518126"/>
<path transform="matrix(1,0,0,-1,0,142.99326)" stroke-width=".7" stroke-linecap="butt" stroke-linejoin="round" fill="none" stroke="#000000" d="M23.518126 53.89504H20.518126"/>
<use data-text="0" xlink:href="#font_1_48" transform="matrix(7,0,0,-7,10.768125,91.68416)"/>
<use data-text="." xlink:href="#font_1_46" transform="matrix(7,0,0,-7,14.268125,91.68416)"/>
<use data-text="2" xlink:href="#font_1_50" transform="matrix(7,0,0,-7,16.018124,91.68416)"/>
<g clip-path="url(#clip_4)">
<path transform="matrix(1,0,0,-1,0,142.99326)" stroke-width=".6" stroke-linecap="square" stroke-linejoin="round" fill="none" stroke="#e9ebed" d="M26.518126 73.89248H123.5616"/>
</g>
<path transform="matrix(1,0,0,-1,0,142.99326)" d="M23.518126 73.89248H20.518126"/>
<path transform="matrix(1,0,0,-1,0,142.99326)" stroke-width=".7" stroke-linecap="butt" stroke-linejoin="round" fill="none" stroke="#000000" d="M23.518126 73.89248H20.518126"/>
<use data-text="0" xlink:href="#font_1_48" transform="matrix(7,0,0,-7,10.768125,71.686717)"/>
<use data-text="." xlink:href="#font_1_46" transform="matrix(7,0,0,-7,14.268125,71.686717)"/>
<use data-text="4" xlink:href="#font_1_52" transform="matrix(7,0,0,-7,16.018124,71.686717)"/>
<g clip-path="url(#clip_5)">
<path transform="matrix(1,0,0,-1,0,142.99326)" stroke-width=".6" stroke-linecap="square" stroke-linejoin="round" fill="none" stroke="#e9ebed" d="M26.518126 93.88992H123.5616"/>
</g>
<path transform="matrix(1,0,0,-1,0,142.99326)" d="M23.518126 93.88992H20.518126"/>
<path transform="matrix(1,0,0,-1,0,142.99326)" stroke-width=".7" stroke-linecap="butt" stroke-linejoin="round" fill="none" stroke="#000000" d="M23.518126 93.88992H20.518126"/>
<use data-text="0" xlink:href="#font_1_48" transform="matrix(7,0,0,-7,10.768125,51.68927)"/>
<use data-text="." xlink:href="#font_1_46" transform="matrix(7,0,0,-7,14.268125,51.68927)"/>
<use data-text="6" xlink:href="#font_1_54" transform="matrix(7,0,0,-7,16.018124,51.68927)"/>
<g clip-path="url(#clip_6)">
<path transform="matrix(1,0,0,-1,0,142.99326)" stroke-width=".6" stroke-linecap="square" stroke-linejoin="round" fill="none" stroke="#e9ebed" d="M26.518126 113.88736H123.5616"/>
</g>
<path transform="matrix(1,0,0,-1,0,142.99326)" d="M23.518126 113.88736H20.518126"/>
<path transform="matrix(1,0,0,-1,0,142.99326)" stroke-width=".7" stroke-linecap="butt" stroke-linejoin="round" fill="none" stroke="#000000" d="M23.518126 113.88736H20.518126"/>
<use data-text="0" xlink:href="#font_1_48" transform="matrix(7,0,0,-7,10.768125,31.691834)"/>
<use data-text="." xlink:href="#font_1_46" transform="matrix(7,0,0,-7,14.268125,31.691834)"/>
<use data-text="8" xlink:href="#font_1_56" transform="matrix(7,0,0,-7,16.018124,31.691834)"/>
<use data-text="R" xlink:href="#font_1_82" transform="matrix(0,-10,-10,-0,8.59625,82.85288)"/>
<use data-text="e" xlink:href="#font_1_101" transform="matrix(0,-10,-10,-0,8.59625,76.182888)"/>
<use data-text="w" xlink:href="#font_1_119" transform="matrix(0,-10,-10,-0,8.59625,71.74288)"/>
<use data-text="a" xlink:href="#font_1_97" transform="matrix(0,-10,-10,-0,8.59625,64.52288)"/>
<use data-text="r" xlink:href="#font_1_114" transform="matrix(0,-10,-10,-0,8.59625,60.08288)"/>
<use data-text="d" xlink:href="#font_1_100" transform="matrix(0,-10,-10,-0,8.59625,56.75288)"/>
<g clip-path="url(#clip_7)">
<path transform="matrix(1,0,0,-1,0,142.99326)" stroke-width=".4" stroke-linecap="square" stroke-linejoin="round" fill="none" stroke="#4a7fc1" stroke-opacity=".35" d="M27.156569 42.4865 27.795014 37.8071 28.433457 45.22615 29.071902 39.366899 29.710345 42.4865 30.34879 44.056299 30.987233 38.976949 31.625676 37.8071 32.26412 46.78595 32.902566 39.756849 33.541009 42.87645 34.17945 47.1759 34.817899 41.7066 35.45634 38.976949 36.094785 44.446249 36.733228 38.976949 38.010118 44.056299 39.287004 38.976949 39.92545 45.22615 40.563894 40.9267 41.202337 42.87645 41.84078 46.396 42.47922 41.31665 43.11767 38.19705 43.75611 46.78595 44.394556 40.9267H45.032999L45.671445 44.446249H46.309888L46.94833 37.8071 47.586778 49.5156 48.22522 39.366899 48.863664 43.666349 49.502107 45.6161 50.140554 43.276399 50.778997 38.19705 51.41744 51.8653 52.05588 42.09655 52.694326 47.1759 53.33277 45.6161 53.971216 47.56585 54.609659 43.276399 55.2481 50.69545 55.886548 40.9267 56.52499 47.56585 57.163434 48.34575 57.80188 45.22615 58.440324 36.62725 59.078767 53.03515 59.71721 39.756849 60.355657 48.7357 60.9941 50.69545 61.63254 43.276399 62.270986 39.756849 62.909429 51.47535 63.547876 44.056299 64.18632 45.6161 64.82476 48.34575 65.4632 47.9558 66.10165 41.7066 66.74009 51.0854 67.37854 41.7066 68.01698 50.69545 68.655429 49.12565 69.93231 40.9267 70.570758 51.0854 71.2092 44.056299 71.84764 49.91555 72.48609 49.12565 73.124538 47.9558 73.76298 43.276399 74.40142 52.6452 75.03986 42.4865 75.67831 49.91555 76.31675 53.03515 76.95519 47.9558 77.59364 44.056299 78.232089 49.5156 78.87053 43.666349 79.50897 50.3055 80.147418 52.6452 80.78586 48.34575 81.4243 42.4865 82.062747 53.03515 82.701198 44.056299 83.33964 52.6452 83.97808 52.25525 84.61652 46.78595 85.25497 42.4865 85.89341 54.59495 86.53185 42.87645 87.170299 50.69545 87.80875 50.3055 88.44719 51.47535 89.08563 43.276399 89.724079 54.9849 90.36252 44.056299 91.00096 52.25525 91.639408 48.34575H92.27785L92.91629 42.09655 93.55474 54.205 94.193187 42.87645 94.83163 54.9849 95.47007 51.8653 96.10851 46.396 96.746959 45.22615 97.3854 54.59495 98.02385 43.666349 98.66229 51.47535 99.300739 52.6452 99.93918 48.7357 100.57762 42.09655 101.216068 54.59495 101.85451 43.276399 102.49295 48.925676 103.13139 47.77582 103.769847 42.09655 104.40829 48.435739 105.04673 46.52598 105.68517 54.35498 106.323619 50.505475 106.96206 51.8653 107.6005 49.12565 108.23895 44.8362 108.877399 52.25525 109.51584 44.056299 110.15428 51.47535 110.792728 54.205 111.43117 50.3055 112.06961 44.8362 112.70805 56.5547 113.3465 44.446249 113.98495 54.205H114.62339L115.26183 46.78595 115.900279 43.276399 116.53872 55.7748 117.17716 47.9558 117.815608 51.47535 118.454059 53.4251 119.0925 46.78595 119.73094 42.87645 120.369388 52.25525 121.00783 45.6161 121.64627 49.12565 122.28471 54.205"/>
</g>
<g clip-path="url(#clip_8)">
<path transform="matrix(1,0,0,-1,0,142.99326)" stroke-width="1.3" stroke-linecap="round" stroke-linejoin="round" fill="none" stroke="#4a7fc1" d="M27.156569 41.47463 27.795014 41.904909 29.071902 41.026689 29.710345 41.666608 30.34879 41.36331 30.987233 41.92657 32.26412 42.403177 32.902566 42.013227 34.17945 42.056558 34.817899 42.446508 35.45634 42.14321 36.094785 42.31652 36.733228 41.883245 37.371675 41.666608 38.010118 41.57995 38.64856 42.013227 39.92545 42.489835 40.563894 42.14321 41.202337 42.446508 41.84078 42.403177 42.47922 42.619817 43.11767 42.53316 43.75611 42.92422 44.394556 42.36096 45.032999 42.707586 45.671445 42.490945 46.309888 43.098646 46.94833 42.96866 47.586778 43.229738 48.22522 42.926446 48.863664 43.750783 49.502107 43.489706 50.140554 44.53068 50.778997 44.097406 51.41744 45.0084 52.05588 44.965074 52.694326 45.529447 53.33277 45.268369 53.971216 46.309347 54.609659 45.91828 55.2481 46.266016 55.886548 45.093946 56.52499 45.91828 57.163434 45.050619 57.80188 45.657205H58.440324L59.078767 45.91828 59.71721 45.050619 60.355657 45.39835 60.9941 45.268369 61.63254 46.267129 62.270986 45.746084 62.909429 46.657079 63.547876 45.876066 64.18632 45.919397 64.82476 45.744974 65.4632 46.960374 66.10165 46.699296 66.74009 46.829278 67.37854 46.30823 68.01698 46.612638 68.655429 46.17936 69.29387 47.091466 69.93231 46.873716 70.570758 47.568075 71.2092 46.743734 71.84764 47.134794 72.48609 46.830389 73.124538 47.829149 73.76298 48.045789 74.40142 48.479066 75.03986 47.828039 75.67831 47.871366 76.31675 47.39476 76.95519 48.175775H77.59364L78.232089 48.826799 78.87053 48.00135H79.50897L80.147418 47.568075 80.78586 48.522394 82.062747 49.173425 82.701198 48.304647 83.33964 48.521284 83.97808 47.91358 84.61652 48.825689 85.25497 48.522394 85.89341 49.346735 86.53185 48.305757 87.170299 48.60905 87.80875 48.305757 88.44719 49.39117 89.08563 48.696817 89.724079 49.304517 90.36252 48.349084 91.00096 48.78236 91.639408 47.826929 92.27785 49.127874 92.91629 48.78125 93.55474 49.041219 94.193187 48.260206 94.83163 48.95456 95.47007 48.434629 96.10851 49.476716 96.746959 49.303407 97.3854 49.954435 98.02385 48.522394 98.66229 48.825689 99.300739 48.479066 99.93918 48.890127 100.57762 48.132444 101.216068 47.958024 101.85451 47.62029 102.49295 46.940374 103.13139 47.56474 103.769847 48.499067 104.40829 48.19577 105.04673 48.845689 105.68517 48.3913 106.323619 48.889017 106.96206 49.106767 107.6005 49.444498 108.23895 50.29772 108.877399 49.84778 109.51584 49.21786 110.15428 49.738908 110.792728 49.21897 111.43117 50.25995 112.70805 50.779886 113.3465 49.86889 113.98495 50.04331 114.62339 49.782236 115.26183 50.519918 115.900279 50.172185 116.53872 50.43215 117.17716 49.173425 118.454059 48.826799 119.0925 49.476716 119.73094 49.302297 120.369388 49.470609 121.00783 49.184217 121.64627 48.4774 122.28471 48.81569"/>
</g>
<g clip-path="url(#clip_9)">
<path transform="matrix(1,0,0,-1,0,142.99326)" stroke-width=".4" stroke-linecap="square" stroke-linejoin="round" fill="none" stroke="#c98fd8" stroke-opacity=".35" d="M27.156569 80.37165 27.795014 79.40177 29.071902 89.16052 29.710345 83.30128 30.34879 83.8912 30.987233 87.41075 31.625676 92.4801 32.26412 82.3314 32.902566 82.52138 33.541009 80.18168 34.17945 92.68008 34.817899 80.7716 35.45634 86.43088 36.094785 86.62085 36.733228 80.571628 37.371675 78.62187 38.010118 93.65995 38.64856 90.9203 39.287004 92.87005 39.92545 82.72135 40.563894 91.90018 41.202337 90.73032 41.84078 88.19065 42.47922 90.1404 43.11767 95.40972 43.75611 86.62085 44.394556 83.8912 45.032999 87.41075 45.671445 94.0499 46.309888 89.16052 46.94833 87.0108 48.22522 98.53932 48.863664 90.53035 49.502107 89.3605 50.140554 86.2309 50.778997 95.99965 51.41744 84.87107 52.05588 86.43088 52.694326 92.4801 53.33277 85.261028 53.971216 82.131427 54.609659 98.33935 55.2481 92.29012 55.886548 97.55945 56.52499 90.34038 57.163434 94.239879 57.80188 94.8298 58.440324 93.84992 59.078767 93.45998 59.71721 96.18963 60.355657 89.94042 60.9941 88.38062 62.270986 99.709178 62.909429 90.9203 63.547876 92.68008 64.18632 99.11925 64.82476 103.618679 65.4632 91.12028 66.10165 93.27 66.74009 91.12028 67.37854 99.90915 68.01698 88.77058 68.655429 91.7002 69.29387 99.31922 69.93231 88.97055 70.570758 85.06105 71.2092 102.24885 71.84764 97.1695 72.48609 99.5092 73.124538 94.62982 73.76298 100.489078 74.40142 95.6097 75.03986 97.75942 75.67831 100.68905 76.31675 99.5092 76.95519 94.62982 77.59364 97.55945 78.232089 95.019779 78.87053 101.46895 79.50897 95.019779 80.147418 99.31922 81.4243 109.47793 82.062747 99.90915 82.701198 101.079 83.33964 96.3896 83.97808 108.888 84.61652 93.07002 85.25497 95.6097 85.89341 101.079 86.53185 95.99965 87.170299 93.65995 87.80875 107.51817 88.44719 102.048877 89.08563 104.78853 89.724079 96.97952 90.36252 101.65893 91.639408 99.90915H92.27785L92.91629 104.78853 93.55474 97.36948 94.193187 97.1695 94.83163 97.9494 95.47007 108.29807 96.10851 101.65893 96.746959 99.709178 97.3854 104.58855 98.02385 111.81763 98.66229 102.24885 99.300739 99.5092 99.93918 97.75942 100.57762 108.68803 101.216068 96.18963 102.49295 103.22872 103.13139 98.7293 103.769847 92.87005 104.40829 109.867877 105.04673 104.78853 105.68517 107.3282 106.323619 102.838779 106.96206 111.81763 107.6005 106.73827 108.877399 102.43883 109.51584 105.178478 110.15428 101.8589 110.792728 103.4187 111.43117 101.65893 112.06961 108.888 113.3465 103.4187 113.98495 102.048877 114.62339 114.74725 115.26183 104.58855 115.900279 105.368457 116.53872 99.31922 117.17716 109.6679 117.815608 100.68905 118.454059 97.1695 119.0925 107.51817 119.73094 100.68905 120.369388 97.9494 121.00783 110.83775 121.64627 107.71815 122.28471 110.25783"/>
</g>
<g clip-path="url(#clip_10)">
<path transform="matrix(1,0,0,-1,0,142.99326)" stroke-width="1.3" stroke-linecap="round" stroke-linejoin="round" fill="none" stroke="#c98fd8" d="M27.156569 83.38126 27.795014 83.466259 28.433457 84.029758 29.071902 85.086048 29.710345 84.779979 30.34879 85.01883 30.987233 85.10549 31.625676 85.99538 32.26412 85.06327 33.541009 85.7143 34.17945 84.9544 34.817899 83.4146 35.45634 84.673328 36.094785 85.60654 36.733228 87.01636 37.371675 85.90983 38.010118 87.14634 38.64856 87.624057 39.287004 87.79848 39.92545 88.86167 40.563894 90.72699 41.84078 89.16386 42.47922 88.55727 43.11767 89.815998 44.394556 89.09831 45.032999 89.59714 45.671445 90.53035 46.309888 89.9882 47.586778 90.55257 48.22522 91.50689 48.863664 90.48702 49.502107 90.18373 50.140554 90.79143 50.778997 89.96709 51.41744 88.14399 52.05588 89.01166 52.694326 89.337169 53.33277 90.595897 53.971216 89.96709 55.2481 91.94128 55.886548 92.09348 56.52499 93.00448 57.163434 94.5665 57.80188 93.633289 59.078767 92.78673 59.71721 93.827709 60.355657 93.45886 60.9941 93.22001 61.63254 93.80549 62.270986 94.934238 62.909429 94.37097 64.18632 95.04533 64.82476 95.718578 65.4632 94.503177 66.10165 94.58983 66.74009 95.327518 67.37854 94.19988 68.01698 92.137928 68.655429 93.37443 69.29387 93.80771 69.93231 94.739818 70.570758 94.15322 71.2092 95.45528 71.84764 95.88966 72.48609 95.716358 73.124538 97.01841 73.76298 98.62376 74.40142 97.7772 75.03986 97.820529 75.67831 97.3217 76.31675 98.081607 76.95519 97.47391 77.59364 97.88608 78.232089 98.62376 78.87053 99.6003 79.50897 99.64474 80.147418 100.36131 80.78586 100.23133 81.4243 101.77225 82.062747 100.83903 82.701198 100.90458 83.33964 101.100109 83.97808 100.16689 84.61652 98.40934 85.25497 99.25479 85.89341 99.36256 86.53185 100.29577 87.170299 98.9726 87.80875 99.926929 88.44719 100.491298 89.08563 100.36131 89.724079 100.7957 90.36252 102.03221 91.00096 100.90458 91.639408 100.36243 92.27785 99.60252 92.91629 100.86014 94.193187 100.75127 94.83163 101.271198 95.47007 102.59436 96.10851 102.31217 96.746959 102.54992 97.3854 102.61547 98.02385 103.80865 98.66229 102.463268 99.300739 102.268848 99.93918 102.659908 100.57762 102.00888 101.216068 99.903598 101.85451 100.75015 102.49295 101.33675 103.13139 102.39994 103.769847 101.75002 104.40829 103.486469 105.04673 104.24526 105.68517 104.375247 106.323619 104.787418 106.96206 106.155017 107.6005 105.26513 108.23895 105.11293 108.877399 104.48301 109.51584 105.15514 110.15428 104.54745 111.43117 103.91753 112.06961 105.285129 112.70805 105.21958 113.3465 105.60953 113.98495 105.15404 114.62339 106.04392 115.900279 104.11305 116.53872 104.56855 117.17716 104.41746 117.815608 102.55103 118.454059 103.24539 119.0925 103.50647 119.73094 104.72187 120.369388 104.103618 121.00783 104.59141 121.64627 105.82839 122.28471 105.49043"/>
</g>
<g clip-path="url(#clip_11)">
<path transform="matrix(1,0,0,-1,0,142.99326)" stroke-width=".4" stroke-linecap="square" stroke-linejoin="round" fill="none" stroke="#6e429a" stroke-opacity=".35" d="M27.156569 78.03195 27.795014 79.9817 29.071902 87.21078 29.710345 81.74148 30.34879 83.1113 30.987233 83.50125 31.625676 95.40972 32.26412 82.91132 32.902566 83.30128 33.541009 77.25205 34.17945 92.09015 34.817899 77.25205 35.45634 85.451 36.094785 89.3605 36.733228 81.74148 37.371675 75.692249 38.010118 95.6097 38.64856 89.75045 39.287004 94.8298 39.92545 87.99068 40.563894 92.29012 41.202337 89.75045 41.84078 88.38062 42.47922 90.9203 43.11767 88.97055 43.75611 87.41075 44.394556 82.3314 45.032999 86.82082 45.671445 97.36948 46.309888 92.4801 46.94833 90.1404 47.586778 90.34038 48.22522 101.079 48.863664 94.0499 49.502107 90.34038 50.140554 84.6711 50.778997 101.079 51.41744 85.06105 52.05588 88.77058 52.694326 94.43985 53.33277 88.77058 53.971216 81.351528 54.609659 100.87903 55.2481 95.019779 55.886548 98.53932 56.52499 94.8298 57.163434 100.2991 58.440324 91.90018 59.71721 98.929279 60.355657 91.51022 61.63254 94.239879 62.270986 99.90915 63.547876 94.43985 64.18632 99.31922 64.82476 105.178478 65.4632 95.019779 66.10165 97.9494 66.74009 90.53035 67.37854 103.4187 68.01698 87.21078 68.655429 95.21975 69.29387 99.11925 69.93231 94.239879 70.570758 87.99068 71.2092 105.958377 71.84764 95.6097 72.48609 104.78853 73.124538 96.18963 73.76298 102.048877 74.40142 97.75942 75.03986 96.18963 75.67831 98.149379 76.31675 96.97952 76.95519 91.31025 77.59364 96.3896 78.232089 99.5092 78.87053 103.4187 79.50897 102.24885 80.147418 98.149379 80.78586 99.11925 81.4243 107.90813 82.062747 97.1695 82.701198 102.838779 83.33964 93.65995 83.97808 106.34833 84.61652 90.9203 85.25497 97.1695 85.89341 98.7293 86.53185 96.77955 87.170299 88.38062 87.80875 108.29807 88.44719 104.78853 89.08563 105.178478 89.724079 99.709178 90.36252 104.9785 91.00096 103.22872 91.639408 97.75942 92.27785 97.1695 92.91629 99.11925 93.55474 93.45998 94.193187 99.11925 94.83163 97.36948 95.47007 106.5483 96.10851 100.87903 96.746959 99.11925 98.02385 110.64777 98.66229 100.489078 99.300739 101.65893 99.93918 95.019779 100.57762 107.3282 101.216068 97.55945 101.85451 100.09913 102.49295 104.398578 103.13139 102.24885 103.769847 93.45998 104.40829 110.05785 105.04673 105.178478 105.68517 109.867877 106.323619 102.43883 106.96206 106.5483 108.23895 101.079H108.877399L109.51584 101.8589 110.15428 97.9494 110.792728 100.87903 111.43117 101.56894 112.06961 108.39806 113.3465 101.268978 114.62339 111.61765 115.26183 99.709178 115.900279 103.02875 116.53872 94.239879 117.17716 109.087978 117.815608 97.55945 118.454059 104.9785 119.0925 103.80865 119.73094 98.929279 120.369388 90.9203 121.00783 111.2277 121.64627 108.49805H122.28471"/>
</g>
<g clip-path="url(#clip_12)">
<path transform="matrix(1,0,0,-1,0,142.99326)" stroke-width="1.3" stroke-linecap="round" stroke-linejoin="round" fill="none" stroke="#6e429a" d="M27.156569 82.131427 28.433457 82.467098 29.071902 84.08492 29.710345 83.95453 30.34879 84.54001 30.987233 84.23671 31.625676 85.16992 32.26412 84.0634 32.902566 84.47557 33.541009 85.16992 34.17945 84.974399 34.817899 82.78356 35.45634 84.194499 36.094785 84.91107 36.733228 86.86415 37.371675 86.40865 38.010118 88.07955 38.64856 88.55727 39.287004 88.448398 39.92545 89.46826 40.563894 90.94363 42.47922 88.31841 43.11767 89.3605 44.394556 89.424938 45.032999 89.642688 45.671445 90.77143 46.309888 91.3358 47.586778 91.92128 48.22522 93.50552 48.863664 92.137928 49.502107 91.72575 50.140554 92.20347 50.778997 92.029048 51.41744 89.837108 52.05588 90.595897 52.694326 91.11583 53.33277 92.656749 53.971216 91.96239 54.609659 93.6555 55.2481 94.47984 55.886548 94.197658 56.52499 94.91423 57.163434 96.86732 57.80188 95.82634 58.440324 95.58748 59.078767 95.109767 59.71721 95.67413 60.355657 95.348628 60.9941 95.154209 61.63254 95.97854 62.270986 97.08507 62.909429 96.65068 63.547876 97.36614 64.18632 97.10618 64.82476 98.126049 65.4632 96.71511 66.10165 96.47626 66.74009 96.996189 67.37854 96.431819 68.01698 94.522068 68.655429 95.73746 69.29387 95.47749 69.93231 97.06174 70.570758 96.25851 71.2092 97.90718 71.84764 98.18937 72.48609 97.86385 73.124538 98.29824 73.76298 99.297008 74.40142 97.66943 75.03986 97.75609 75.67831 97.1695 76.31675 97.97273 77.59364 98.03828 78.232089 98.36379 78.87053 99.4481 79.50897 99.46921 80.147418 100.75015 80.78586 100.44686 81.4243 101.206768 82.062747 99.81805 82.701198 99.25368 83.33964 99.318119 83.97808 99.05814 84.61652 96.88843 85.25497 98.12493 85.89341 98.341579 86.53185 99.62141 87.170299 98.88373 87.80875 100.44575 88.44719 101.118999 89.08563 101.01123 89.724079 101.05456 90.36252 102.24774 91.00096 100.59906 91.639408 99.96914 92.27785 99.10148 92.91629 99.86138 94.193187 98.94927 94.83163 99.77361 95.47007 101.271198 96.10851 101.4234 96.746959 102.3344 97.3854 101.8789 98.02385 102.98542 98.66229 101.986667 99.300739 101.90001 99.93918 102.486598 100.57762 102.16108 101.216068 100.25133 101.85451 101.31452 102.49295 101.70559 103.13139 103.35538 103.769847 102.81211 104.40829 103.810878 105.04673 104.201938 105.68517 103.83309 106.323619 103.70311 106.96206 104.63632 107.6005 103.29094 108.23895 102.813228 108.877399 101.89112 109.51584 102.55325 110.792728 102.09665 111.43117 102.736568 112.06961 103.907527 112.70805 103.66867 113.3465 104.23304 113.98495 103.49535 114.62339 104.3308 115.26183 103.12652 115.900279 103.14762 116.53872 103.42981 117.17716 102.55103 117.815608 100.25133 118.454059 101.531169 119.0925 102.13886 119.73094 103.72311 120.369388 103.0525 121.00783 103.83722 121.64627 103.647 122.28471 103.61468"/>
</g>
<path transform="matrix(1,0,0,-1,0,142.99326)" stroke-width=".7" stroke-linecap="square" stroke-miterlimit="10" stroke-linejoin="miter" fill="none" stroke="#000000" d="M23.518126 32.72125V118.65325"/>
<path transform="matrix(1,0,0,-1,0,142.99326)" stroke-width=".7" stroke-linecap="square" stroke-miterlimit="10" stroke-linejoin="miter" fill="none" stroke="#000000" d="M26.518126 29.72125H123.5616"/>
<path transform="matrix(1,0,0,-1,0,142.99326)" d="M156.55638 32.72125H253.59987V118.65325H156.55638Z" fill="#ffffff"/>
<path transform="matrix(1,0,0,-1,0,142.99326)" d="M188.47858 29.72125V26.72125"/>
<path transform="matrix(1,0,0,-1,0,142.99326)" stroke-width=".7" stroke-linecap="butt" stroke-linejoin="round" fill="none" stroke="#000000" d="M188.47858 29.72125V26.72125"/>
<use data-text="5" xlink:href="#font_1_53" transform="matrix(9,0,0,-9,183.97858,126.272)"/>
<use data-text="0" xlink:href="#font_1_48" transform="matrix(9,0,0,-9,188.47858,126.272)"/>
<path transform="matrix(1,0,0,-1,0,142.99326)" d="M220.40077 29.72125V26.72125"/>
<path transform="matrix(1,0,0,-1,0,142.99326)" stroke-width=".7" stroke-linecap="butt" stroke-linejoin="round" fill="none" stroke="#000000" d="M220.40077 29.72125V26.72125"/>
<use data-text="1" xlink:href="#font_1_49" transform="matrix(9,0,0,-9,213.65077,126.272)"/>
<use data-text="0" xlink:href="#font_1_48" transform="matrix(9,0,0,-9,218.15077,126.272)"/>
<use data-text="0" xlink:href="#font_1_48" transform="matrix(9,0,0,-9,222.65077,126.272)"/>
<path transform="matrix(1,0,0,-1,0,142.99326)" d="M252.32299 29.72125V26.72125"/>
<path transform="matrix(1,0,0,-1,0,142.99326)" stroke-width=".7" stroke-linecap="butt" stroke-linejoin="round" fill="none" stroke="#000000" d="M252.32299 29.72125V26.72125"/>
<use data-text="1" xlink:href="#font_1_49" transform="matrix(9,0,0,-9,245.57299,126.272)"/>
<use data-text="5" xlink:href="#font_1_53" transform="matrix(9,0,0,-9,250.07299,126.272)"/>
<use data-text="0" xlink:href="#font_1_48" transform="matrix(9,0,0,-9,254.57299,126.272)"/>
<use data-text="R" xlink:href="#font_1_82" transform="matrix(10,0,0,-10,188.54688,139.38138)"/>
<use data-text="L" xlink:href="#font_1_76" transform="matrix(10,0,0,-10,195.21688,139.38138)"/>
<use data-text=" " xlink:href="#font_1_32" transform="matrix(10,0,0,-10,201.32688,139.38138)"/>
<use data-text="S" xlink:href="#font_1_83" transform="matrix(10,0,0,-10,203.82688,139.38138)"/>
<use data-text="t" xlink:href="#font_1_116" transform="matrix(10,0,0,-10,209.38687,139.38138)"/>
<use data-text="e" xlink:href="#font_1_101" transform="matrix(10,0,0,-10,212.16687,139.38138)"/>
<use data-text="p" xlink:href="#font_1_112" transform="matrix(10,0,0,-10,216.60688,139.38138)"/>
<g clip-path="url(#clip_13)">
<path transform="matrix(1,0,0,-1,0,142.99326)" stroke-width=".6" stroke-linecap="square" stroke-linejoin="round" fill="none" stroke="#e9ebed" d="M156.55638 50.21458H253.59987"/>
</g>
<path transform="matrix(1,0,0,-1,0,142.99326)" d="M153.55638 50.21458H150.55638"/>
<path transform="matrix(1,0,0,-1,0,142.99326)" stroke-width=".7" stroke-linecap="butt" stroke-linejoin="round" fill="none" stroke="#000000" d="M153.55638 50.21458H150.55638"/>
<use data-text="2" xlink:href="#font_1_50" transform="matrix(7,0,0,-7,139.05638,95.36461)"/>
<use data-text="0" xlink:href="#font_1_48" transform="matrix(7,0,0,-7,142.55638,95.36461)"/>
<use data-text="k" xlink:href="#font_1_107" transform="matrix(7,0,0,-7,146.05638,95.36461)"/>
<g clip-path="url(#clip_14)">
<path transform="matrix(1,0,0,-1,0,142.99326)" stroke-width=".6" stroke-linecap="square" stroke-linejoin="round" fill="none" stroke="#e9ebed" d="M156.55638 71.58766H253.59987"/>
</g>
<path transform="matrix(1,0,0,-1,0,142.99326)" d="M153.55638 71.58766H150.55638"/>
<path transform="matrix(1,0,0,-1,0,142.99326)" stroke-width=".7" stroke-linecap="butt" stroke-linejoin="round" fill="none" stroke="#000000" d="M153.55638 71.58766H150.55638"/>
<use data-text="2" xlink:href="#font_1_50" transform="matrix(7,0,0,-7,139.05638,73.99153)"/>
<use data-text="5" xlink:href="#font_1_53" transform="matrix(7,0,0,-7,142.55638,73.99153)"/>
<use data-text="k" xlink:href="#font_1_107" transform="matrix(7,0,0,-7,146.05638,73.99153)"/>
<g clip-path="url(#clip_15)">
<path transform="matrix(1,0,0,-1,0,142.99326)" stroke-width=".6" stroke-linecap="square" stroke-linejoin="round" fill="none" stroke="#e9ebed" d="M156.55638 92.96075H253.59987"/>
</g>
<path transform="matrix(1,0,0,-1,0,142.99326)" d="M153.55638 92.96075H150.55638"/>
<path transform="matrix(1,0,0,-1,0,142.99326)" stroke-width=".7" stroke-linecap="butt" stroke-linejoin="round" fill="none" stroke="#000000" d="M153.55638 92.96075H150.55638"/>
<use data-text="3" xlink:href="#font_1_51" transform="matrix(7,0,0,-7,139.05638,52.618448)"/>
<use data-text="0" xlink:href="#font_1_48" transform="matrix(7,0,0,-7,142.55638,52.618448)"/>
<use data-text="k" xlink:href="#font_1_107" transform="matrix(7,0,0,-7,146.05638,52.618448)"/>
<g clip-path="url(#clip_16)">
<path transform="matrix(1,0,0,-1,0,142.99326)" stroke-width=".6" stroke-linecap="square" stroke-linejoin="round" fill="none" stroke="#e9ebed" d="M156.55638 114.33383H253.59987"/>
</g>
<path transform="matrix(1,0,0,-1,0,142.99326)" d="M153.55638 114.33383H150.55638"/>
<path transform="matrix(1,0,0,-1,0,142.99326)" stroke-width=".7" stroke-linecap="butt" stroke-linejoin="round" fill="none" stroke="#000000" d="M153.55638 114.33383H150.55638"/>
<use data-text="3" xlink:href="#font_1_51" transform="matrix(7,0,0,-7,139.05638,31.245362)"/>
<use data-text="5" xlink:href="#font_1_53" transform="matrix(7,0,0,-7,142.55638,31.245362)"/>
<use data-text="k" xlink:href="#font_1_107" transform="matrix(7,0,0,-7,146.05638,31.245362)"/>
<use data-text="T" xlink:href="#font_1_84" transform="matrix(0,-10,-10,-0,136.8845,113.13413)"/>
<use data-text="o" xlink:href="#font_1_111" transform="matrix(0,-10,-10,-0,136.8845,107.02413)"/>
<use data-text="o" xlink:href="#font_1_111" transform="matrix(0,-10,-10,-0,136.8845,102.02413)"/>
<use data-text="l" xlink:href="#font_1_108" transform="matrix(0,-10,-10,-0,136.8845,97.02413)"/>
<use data-text=" " xlink:href="#font_1_32" transform="matrix(0,-10,-10,-0,136.8845,94.24413)"/>
<use data-text="R" xlink:href="#font_1_82" transform="matrix(0,-10,-10,-0,136.8845,91.74413)"/>
<use data-text="e" xlink:href="#font_1_101" transform="matrix(0,-10,-10,-0,136.8845,85.07413)"/>
<use data-text="s" xlink:href="#font_1_115" transform="matrix(0,-10,-10,-0,136.8845,80.63413)"/>
<use data-text="p" xlink:href="#font_1_112" transform="matrix(0,-10,-10,-0,136.8845,76.74413)"/>
<use data-text="o" xlink:href="#font_1_111" transform="matrix(0,-10,-10,-0,136.8845,71.74413)"/>
<use data-text="n" xlink:href="#font_1_110" transform="matrix(0,-10,-10,-0,136.8845,66.74413)"/>
<use data-text="s" xlink:href="#font_1_115" transform="matrix(0,-10,-10,-0,136.8845,61.744134)"/>
<use data-text="e" xlink:href="#font_1_101" transform="matrix(0,-10,-10,-0,136.8845,57.854135)"/>
<use data-text=" " xlink:href="#font_1_32" transform="matrix(0,-10,-10,-0,136.8845,53.41413)"/>
<use data-text="T" xlink:href="#font_1_84" transform="matrix(0,-10,-10,-0,136.8845,50.91413)"/>
<use data-text="o" xlink:href="#font_1_111" transform="matrix(0,-10,-10,-0,136.8845,44.80413)"/>
<use data-text="k" xlink:href="#font_1_107" transform="matrix(0,-10,-10,-0,136.8845,39.80413)"/>
<use data-text="e" xlink:href="#font_1_101" transform="matrix(0,-10,-10,-0,136.8845,34.80413)"/>
<use data-text="n" xlink:href="#font_1_110" transform="matrix(0,-10,-10,-0,136.8845,30.364129)"/>
<use data-text="s" xlink:href="#font_1_115" transform="matrix(0,-10,-10,-0,136.8845,25.364129)"/>
<g clip-path="url(#clip_17)">
<path transform="matrix(1,0,0,-1,0,142.99326)" stroke-width=".4" stroke-linecap="square" stroke-linejoin="round" fill="none" stroke="#4a7fc1" stroke-opacity=".35" d="M157.19483 94.30707 157.83327 97.533588 158.47173 92.89861 159.11017 69.58026 159.74861 110.79884 160.38706 84.37767 161.0255 93.12687 161.66394 97.48179 162.30239 97.254238 162.94083 67.9413 163.57927 105.84255 164.21772 81.26882 164.85616 93.558399 165.4946 96.53234 166.13304 97.161548 166.77149 68.63968 167.40993 109.797779 168.04837 83.46933 168.68683 96.41889 169.32527 98.70917 169.96372 91.89857 170.60216 70.37409 171.2406 110.46585 171.87905 81.51741 172.51749 97.02753 173.15593 96.386989 173.79438 94.721889 174.43282 69.16532 175.07126 111.08945 175.7097 82.96918 176.34815 94.75091 176.98659 99.92904 177.62503 97.28065 178.26348 71.16859 178.90192 111.55718 179.54038 83.64387 180.17882 93.01635 180.81726 96.527248 181.4557 94.14279 182.09415 72.76328 182.73259 111.352039 183.37104 79.752048 184.00948 95.73629 184.64792 100.55959 185.28636 97.65687 185.9248 69.741298 186.56325 108.91455 187.20169 87.42699 187.84014 96.69758 188.47858 100.65818 189.11702 96.49754 189.75548 71.09548 190.39392 113.41865 191.03237 83.66085 191.6708 96.14612 192.30925 100.22249 192.9477 94.59385 193.58614 70.4903 194.22458 111.51494 194.86302 86.719089 195.50147 96.56679 196.13991 99.870738 196.77835 95.52069 197.4168 71.08137 198.05524 108.17514 198.69368 85.96567 199.33213 95.11721 199.97058 101.50329 200.60903 98.39514 201.24747 70.01574 201.88591 113.714717 202.52436 82.17387 203.1628 97.392658 203.80124 99.1801 204.43968 98.67571 205.07813 69.27269 205.71657 114.74725 206.35501 85.06685 206.99346 97.51028 207.6319 99.82665 208.27034 100.405979 208.90879 70.99162 209.54723 113.19874 210.18567 83.15785 210.82413 99.19002 211.46257 100.5698 212.10102 96.6905 212.73946 70.841899 213.3779 114.335437 214.01634 85.374538 214.65479 96.58639 215.29323 101.62787 215.93167 96.92195 216.57012 70.4506 217.20856 110.34051 217.847 82.10284 218.48545 98.24018 219.12389 100.652759 219.76233 94.35975 220.40077 70.02402 221.03923 113.14163 221.67768 86.61506 222.31612 97.90426 222.95456 99.414737 223.593 97.70001 224.23145 70.27001 224.86989 109.71503 225.50833 81.82766 226.14678 93.95085 226.78522 98.11276 227.42366 96.00156 228.0621 72.63077 228.70055 110.60015 229.33899 82.22892 229.97743 99.426639 230.61588 100.47356 231.25434 96.60768 231.89278 70.02552 232.53122 93.62772 233.16967 82.29239 233.8081 77.55046 234.44655 110.03432 235.08499 89.873699 235.72344 78.978069 236.36188 93.09548 237.00032 85.47756 238.2772 99.363559 238.91565 97.25144 239.5541 69.57562 240.19254 114.40398 240.83098 86.036388 241.46942 98.051349 242.10788 98.33596 242.74633 93.50327 243.38477 69.80573 244.02321 112.97016 244.66165 85.69695 245.3001 97.223697 245.93854 101.89789 246.57698 95.633937 247.21543 69.34779 247.85387 108.64996 248.49231 81.42028 249.13076 95.773799 249.7692 97.06433 250.40764 94.69178 251.04608 67.78486 251.68453 107.25752 252.32299 82.01141"/>
</g>
<g clip-path="url(#clip_18)">
<path transform="matrix(1,0,0,-1,0,142.99326)" stroke-width="1.3" stroke-linecap="round" stroke-linejoin="round" fill="none" stroke="#4a7fc1" d="M157.19483 93.023677 157.83327 91.58267 158.47173 91.803279 159.11017 92.513088 159.74861 93.03988 160.38706 90.11035 161.0255 91.03357 161.66394 89.74137 162.30239 92.40561 162.94083 90.82044 163.57927 92.24087 164.21772 89.52007 164.85616 90.88851 165.4946 89.35686 166.13304 92.521038 166.77149 91.72844 167.40993 92.90952 168.04837 90.33349 168.68683 91.88166 169.32527 90.14342 169.96372 93.29762 170.60216 91.80753 171.2406 93.05782 171.87905 90.02965 172.51749 91.405239 173.15593 90.41308 173.79438 93.12161 174.43282 91.95086 175.07126 93.70233 175.7097 90.82911 176.34815 92.51469 176.98659 91.2838 177.62503 93.933917 178.26348 92.31589 178.90192 93.5574 179.54038 91.114337 180.17882 92.38355 180.81726 90.435939 181.4557 93.16568 182.09415 91.943729 182.73259 93.500728 183.37104 90.914608 184.00948 92.29098 184.64792 91.54477 185.28636 94.20414 185.9248 93.01593 186.56325 94.87654 187.20169 92.13868 187.84014 93.56746 188.47858 92.012348 189.11702 94.94621 189.75548 93.98043 190.39392 94.77675 191.03237 91.86483 191.6708 93.07114 192.30925 91.98464 192.9477 94.81479 193.58614 93.30946 194.22458 94.62722 194.86302 91.84225 195.50147 92.725879 196.13991 91.76719 196.77835 94.50352 197.4168 93.391109 198.05524 94.688449 198.69368 91.738338 199.33213 93.27655 199.97058 91.79357 200.60903 94.71705 201.24747 93.7176 201.88591 95.12982 202.52436 92.25821 203.1628 93.72976 203.80124 92.24884 204.43968 95.30379 205.07813 93.76067 205.71657 95.78646 206.35501 92.85301 206.99346 94.41064 207.6319 92.68643 208.27034 96.01058 208.90879 94.43531 209.54723 95.72682 210.18567 92.76367 210.82413 94.375759 211.46257 92.7056 212.10102 95.54946 212.73946 94.26381 213.3779 95.79315 214.01634 92.599887 214.65479 93.68552 215.29323 92.06467 215.93167 95.108928 216.57012 93.58862 217.20856 94.58698 217.847 91.635608 218.48545 92.91492 219.12389 91.76971 219.76233 94.820117 220.40077 93.60613 221.03923 95.33916 221.67768 92.23136 222.31612 93.23828 222.95456 91.845829 223.593 94.504367 224.23145 92.83449 224.86989 93.87743 225.50833 91.06927 226.14678 92.31209 226.78522 90.59308 227.42366 93.8327 228.0621 92.80588 228.70055 94.4481 229.33899 91.78973 229.97743 91.29139 230.61588 89.76815 231.25434 90.31478 231.89278 90.251918 232.53122 91.10133 233.16967 88.82927 233.8081 88.00948 234.44655 86.772808 235.08499 89.33359 235.72344 89.9709 236.36188 91.63302 237.00032 90.746929 237.63877 91.23244 238.2772 90.80607 238.91565 92.92532 239.5541 93.5076 240.19254 94.399349 240.83098 91.81414 241.46942 93.32599 242.10788 92.04216 242.74633 95.11417 243.38477 93.7246 244.02321 94.79099 244.66165 91.60171 245.3001 92.74771 245.93854 91.40516 246.57698 94.2905 247.21543 92.52318 247.85387 93.522609 248.49231 90.251628 249.13076 90.84714 249.7692 89.33353 250.40764 91.83174 251.04608 89.42914 251.68453 90.76395 252.32299 89.76198"/>
</g>
<g clip-path="url(#clip_19)">
<path transform="matrix(1,0,0,-1,0,142.99326)" stroke-width=".4" stroke-linecap="square" stroke-linejoin="round" fill="none" stroke="#c98fd8" stroke-opacity=".35" d="M157.19483 73.48108 157.83327 81.6603 158.47173 80.32591 159.11017 68.97075 159.74861 83.18806 160.38706 75.95263 161.0255 77.31308 161.66394 65.40429 162.30239 83.01073 162.94083 85.58459 163.57927 69.58287 164.21772 81.4624 164.85616 59.944318 165.4946 93.28788 166.13304 72.45467 166.77149 79.34773 167.40993 75.41512 168.04837 77.81419 168.68683 75.89479 169.32527 78.47087 169.96372 85.81661 170.60216 78.67341 171.2406 80.23157 171.87905 80.973018 172.51749 78.32456 173.15593 73.75076 173.79438 79.455219 174.43282 88.355739 175.07126 89.07935 175.7097 79.56058 176.34815 89.69542 176.98659 82.690898 177.62503 77.81208 178.26348 68.9655 178.90192 91.60458 179.54038 94.051189 180.17882 80.531558 180.81726 87.99842 181.4557 63.382135 182.09415 97.33526 182.73259 78.75707 183.37104 82.78377 184.00948 79.08161 184.64792 83.79341 185.28636 85.25133 185.9248 87.427608 186.56325 90.449909 187.20169 79.31566 187.84014 81.661 188.47858 82.18369 189.11702 79.44746 189.75548 80.77 190.39392 81.68888 191.03237 89.56697 191.6708 90.34157 192.30925 79.7534 192.9477 91.50278 193.58614 81.96808 194.22458 78.898029 194.86302 71.07388 195.50147 90.94686 196.13991 91.6176 196.77835 81.85217 197.4168 87.34251 198.05524 60.971254 198.69368 94.746509 199.33213 73.891658 199.97058 77.74313 200.60903 75.75599 201.24747 75.73148 201.88591 75.18977 202.52436 77.70821 203.1628 78.49536 203.80124 70.08134 204.43968 70.68919 205.07813 69.3978 205.71657 68.723407 206.35501 66.12391 206.99346 69.70797 207.6319 78.117877 208.27034 78.14648 208.90879 68.95987 209.54723 77.937068 210.18567 64.69976 210.82413 66.67238 211.46257 56.186136 212.10102 81.80662 213.3779 66.58104 214.01634 69.84879 214.65479 51.396455 215.29323 81.78779 215.93167 62.34049 216.57012 64.68259 217.20856 63.210626 217.847 60.238054 218.48545 63.6667 219.12389 65.14781 219.76233 67.16642 220.40077 60.9891 221.03923 61.930788 221.67768 63.09814 222.31612 61.398698 222.95456 56.54123 223.593 61.06885 224.23145 71.20626 224.86989 65.299358 225.50833 64.29032 226.14678 71.92922 226.78522 62.199144 227.42366 64.4032 228.0621 51.98219 228.70055 73.14117 229.33899 71.16721 229.97743 63.00768 230.61588 68.441898 231.25434 51.648248 231.89278 76.33044 232.53122 61.103216 233.16967 60.645799 233.8081 58.624578 234.44655 61.57857 235.08499 62.96157 235.72344 62.534418 236.36188 63.57599 237.00032 56.797315 237.63877 56.19922 238.2772 58.304834 238.91565 54.554929 239.5541 54.666845 240.19254 55.475004 240.83098 62.70274 241.46942 60.651174 242.10788 54.653944 242.74633 63.491147 243.38477 53.758604 244.02321 58.924715 244.66165 46.834527 245.3001 66.445858 246.57698 54.870607 247.21543 58.829435 247.85387 45.425607 248.49231 67.430408 249.13076 48.948335 249.7692 52.26355 250.40764 54.434644 251.04608 48.47905 251.68453 54.785089 252.32299 53.865705"/>
</g>
<g clip-path="url(#clip_20)">
<path transform="matrix(1,0,0,-1,0,142.99326)" stroke-width="1.3" stroke-linecap="round" stroke-linejoin="round" fill="none" stroke="#c98fd8" d="M157.19483 77.52522 157.83327 77.26312 158.47173 77.270259 159.11017 75.78701 159.74861 76.589649 160.38706 77.93448 161.0255 76.592548 161.66394 76.71882 162.30239 75.71588 162.94083 76.83809 163.57927 76.449428 164.21772 76.6755 164.85616 77.78781 165.4946 77.21042 166.13304 76.13377 166.77149 77.12133 167.40993 77.60513 168.04837 79.68614 168.68683 78.23544 169.32527 79.18192 170.60216 78.88331 171.2406 79.06564 172.51749 81.628917 173.15593 80.9338 173.79438 82.15846 174.43282 82.431728 175.07126 82.08051 175.7097 81.04061 176.98659 84.64615 177.62503 83.776798 178.26348 83.65669 178.90192 81.859088 179.54038 82.707958 180.17882 82.27087 180.81726 82.82327 181.4557 83.94729 182.73259 82.101619 183.37104 82.86784 184.00948 83.14023 184.64792 84.91062 185.28636 83.169048 185.9248 83.549777 186.56325 83.17908 187.20169 83.36668 187.84014 83.132839 188.47858 83.61235 189.11702 83.93613 189.75548 82.74763 190.39392 84.10175 191.03237 84.13587 191.6708 83.7708 192.30925 82.8404 193.58614 85.07435 194.22458 84.21715 194.86302 83.88392 195.50147 81.79702 196.13991 82.15743 196.77835 81.26005 197.4168 81.13173 198.05524 81.65196 199.33213 78.136058 199.97058 77.67561 200.60903 76.6926 201.24747 77.70483 201.88591 75.03179 202.52436 74.53248 203.80124 72.46005 204.43968 71.79077 205.07813 72.11612 205.71657 72.16481 206.35501 71.105319 206.99346 71.97817 207.6319 71.31268 208.27034 71.00986 208.90879 69.61683 209.54723 71.35935 210.18567 71.921039 210.82413 70.63917 211.46257 69.7172 212.10102 67.76571 212.73946 68.19357 214.01634 67.71034 214.65479 68.49084 215.29323 66.09433 215.93167 64.8614 216.57012 64.70215 217.20856 64.404109 217.847 65.469959 218.48545 63.26362 219.12389 63.3478 219.76233 62.982927 220.40077 62.241884 221.03923 62.334196 221.67768 63.17192 222.31612 63.18876 222.95456 62.869195 223.593 64.08476 224.23145 64.11458 224.86989 64.25959 225.50833 63.213308 226.14678 65.05775 226.78522 66.17979 227.42366 65.26883 228.0621 65.618007 228.70055 64.213329 229.33899 64.702358 229.97743 64.58058 230.61588 64.16309 231.25434 64.90114 231.89278 63.6164 232.53122 62.704668 233.16967 62.65208 233.8081 62.111425 234.44655 62.68354 235.08499 60.44674 235.72344 60.13581 236.36188 59.459047 237.00032 59.0193 237.63877 58.341127 238.2772 58.312368 238.91565 58.103116 239.5541 57.11178 240.19254 57.855539 240.83098 57.58436 241.46942 57.653234 242.10788 56.79541 242.74633 58.10419 243.38477 58.683156 244.02321 57.81292 244.66165 57.610506 245.3001 56.585134 245.93854 57.022829 246.57698 56.488355 247.21543 55.748224 247.85387 56.59268 248.49231 54.59637 249.13076 53.940748 249.7692 53.82909 250.40764 53.20405 251.04608 54.315256 251.68453 52.129396 252.32299 52.765607"/>
</g>
<g clip-path="url(#clip_21)">
<path transform="matrix(1,0,0,-1,0,142.99326)" stroke-width=".4" stroke-linecap="square" stroke-linejoin="round" fill="none" stroke="#6e429a" stroke-opacity=".35" d="M157.19483 59.281709 157.83327 70.1346 158.47173 68.64307 159.11017 59.818265 159.74861 65.20966 160.38706 60.93494 161.0255 61.73549 161.66394 53.122579 162.30239 69.317409 162.94083 67.0761 163.57927 60.355867 164.21772 59.35775 164.85616 45.354475 165.4946 78.42163 166.13304 59.586385 166.77149 64.54543 167.40993 53.923 168.04837 56.57934 168.68683 57.22954 169.32527 65.39286 169.96372 61.924516 170.60216 57.775934 171.2406 65.01007 171.87905 62.06229 172.51749 55.08135 173.15593 55.948495 173.79438 59.440916 174.43282 68.828418 175.07126 68.36417 175.7097 59.15462 176.34815 66.76815 176.98659 58.036535 177.62503 61.21808 178.26348 52.666139 178.90192 67.504947 179.54038 69.30676 180.17882 56.208276 180.81726 56.54406 181.4557 49.15832 182.09415 68.40001 182.73259 54.198366 183.37104 56.665727 184.00948 55.31044 184.64792 52.678136 185.28636 54.98116 185.9248 56.790395 186.56325 56.595296 187.20169 50.331064 188.47858 56.08362 189.11702 49.2406 189.75548 53.837717 190.39392 55.884435 191.03237 58.489645 191.6708 59.094694 192.30925 50.70435 192.9477 59.57105 193.58614 53.337629 194.22458 56.329385 194.86302 45.355016 195.50147 60.942724 196.13991 60.199377 196.77835 50.15444 197.4168 52.92553 198.05524 40.537874 198.69368 62.744058 199.33213 49.26428 199.97058 53.38621 200.60903 52.102415 201.24747 46.822679 202.52436 54.88302 203.1628 51.998029 203.80124 49.70785 204.43968 49.434896 205.07813 50.105878 205.71657 48.50732 206.35501 50.555505 206.99346 53.92994 207.6319 61.182588 208.27034 56.939287 208.90879 50.2444 209.54723 54.12821 210.18567 52.578069 210.82413 52.065546 211.46257 46.141214 212.10102 60.363164 212.73946 57.293729 213.3779 47.171094 214.01634 50.541105 214.65479 40.425516 215.29323 57.796556 215.93167 45.860464 216.57012 48.097017 217.20856 47.619604 217.847 46.226613 218.48545 46.00923 219.12389 52.814825 219.76233 47.268285 220.40077 45.951318 221.03923 47.485414 221.67768 49.707155 222.31612 44.871217 222.95456 46.210916 224.23145 55.152307 224.86989 55.739145 225.50833 48.805536 226.14678 53.7376 226.78522 50.840944 227.42366 50.411657 228.0621 43.808549 228.70055 57.990167 229.33899 56.00418 229.97743 45.803144 230.61588 49.429704 231.25434 39.77664 231.89278 54.07065 232.53122 43.09122 233.16967 44.725587 233.8081 47.634065 234.44655 41.823198 235.08499 45.800695 235.72344 47.641855 236.36188 47.719797 237.00032 41.923467 237.63877 43.388719 238.2772 47.56027 238.91565 40.286046 240.19254 46.616708 240.83098 52.401109 241.46942 51.375 242.10788 44.19469 242.74633 51.719438 243.38477 47.297094 244.02321 46.263269 244.66165 38.445325 245.3001 55.338636 245.93854 51.699819 246.57698 44.04587 247.21543 44.99412 247.85387 36.62725 248.49231 53.66816 249.13076 43.056135 249.7692 43.1782 250.40764 44.166864 251.04608 44.929586 251.68453 43.223669 252.32299 46.679498"/>
</g>
<g clip-path="url(#clip_22)">
<path transform="matrix(1,0,0,-1,0,142.99326)" stroke-width="1.3" stroke-linecap="round" stroke-linejoin="round" fill="none" stroke="#6e429a" d="M157.19483 64.61746 157.83327 64.00371 158.47173 63.679677 159.11017 62.36004 160.38706 63.999124 161.66394 61.880899 162.30239 60.273809 162.94083 61.741807 163.57927 61.591966 164.21772 61.904184 164.85616 61.99312 165.4946 60.577779 166.13304 59.48371 166.77149 60.04338 167.40993 60.328577 168.04837 61.708738 168.68683 60.218564 169.32527 60.493665 169.96372 59.4421 171.2406 59.985109 171.87905 61.273874 172.51749 61.604017 173.15593 61.29625 173.79438 62.295385 174.43282 61.52055 175.07126 61.426748 175.7097 61.15839 176.98659 63.538648 178.26348 60.823064 178.90192 59.712366 179.54038 59.89368 180.81726 58.9614 181.4557 59.25521 182.73259 56.016057 184.64792 56.216733 185.28636 54.543016 185.9248 54.752489 186.56325 53.92747 187.20169 53.763837 189.11702 54.765958 189.75548 54.11141 190.39392 55.138074 191.6708 55.1655 192.30925 54.73377 192.9477 55.523214 193.58614 56.00265 194.22458 55.07652 194.86302 54.391057 195.50147 53.261449 196.13991 53.614004 197.4168 52.83439 198.05524 53.5841 198.69368 52.015207 199.33213 50.94643 199.97058 51.47183 200.60903 51.368776 201.24747 52.38766 201.88591 50.908868 202.52436 51.002378 203.1628 50.460279 203.80124 50.2884 204.43968 51.078096 205.07813 52.256116 205.71657 52.48459 206.35501 52.28974 206.99346 52.78089 207.6319 53.13013 208.27034 53.347875 208.90879 53.084974 209.54723 54.174715 210.18567 54.548467 210.82413 52.991636 211.46257 52.280725 212.10102 51.189737 212.73946 51.597333 213.3779 50.85093 214.01634 50.409986 214.65479 50.57425 215.29323 49.00352 215.93167 47.749689 216.57012 48.37677 217.20856 48.013124 217.847 48.6271 218.48545 47.48142 219.12389 47.90883 219.76233 47.550405 220.40077 47.393884 221.03923 47.880376 221.67768 48.896276 222.31612 49.2212 222.95456 49.392004 223.593 50.257146 224.23145 50.629983 224.86989 50.70826 225.50833 50.590188 226.14678 51.89899 226.78522 52.498899 227.42366 51.460103 228.0621 50.759054 228.70055 49.75584 229.33899 49.792848 229.97743 48.931768 230.61588 48.29998 231.25434 48.72504 231.89278 46.928709 232.53122 45.79499 233.16967 45.99929 233.8081 45.8093 234.44655 46.047838 235.08499 44.860956 235.72344 45.357519 237.00032 44.433324 237.63877 44.965936 238.2772 45.699316 238.91565 46.11411 239.5541 45.72243 240.19254 46.81087 240.83098 47.245138 242.10788 46.8965 242.74633 48.18347 243.38477 48.748266 244.02321 47.819906 245.3001 46.27009 245.93854 46.486616 247.21543 45.67261 247.85387 46.30834 249.13076 44.209985 249.7692 44.50261 250.40764 44.44117 251.04608 45.55744 251.68453 44.205659 252.32299 44.435564"/>
</g>
<path transform="matrix(1,0,0,-1,0,142.99326)" stroke-width=".7" stroke-linecap="square" stroke-miterlimit="10" stroke-linejoin="miter" fill="none" stroke="#000000" d="M153.55638 32.72125V118.65325"/>
<path transform="matrix(1,0,0,-1,0,142.99326)" stroke-width=".7" stroke-linecap="square" stroke-miterlimit="10" stroke-linejoin="miter" fill="none" stroke="#000000" d="M156.55638 29.72125H253.59987"/>
<path transform="matrix(1,0,0,-1,0,142.99326)" d="M286.59465 32.72125H383.63813V118.65325H286.59465Z" fill="#ffffff"/>
<path transform="matrix(1,0,0,-1,0,142.99326)" d="M318.51686 29.72125V26.72125"/>
<path transform="matrix(1,0,0,-1,0,142.99326)" stroke-width=".7" stroke-linecap="butt" stroke-linejoin="round" fill="none" stroke="#000000" d="M318.51686 29.72125V26.72125"/>
<use data-text="5" xlink:href="#font_1_53" transform="matrix(9,0,0,-9,314.01686,126.272)"/>
<use data-text="0" xlink:href="#font_1_48" transform="matrix(9,0,0,-9,318.51686,126.272)"/>
<path transform="matrix(1,0,0,-1,0,142.99326)" d="M350.43904 29.72125V26.72125"/>
<path transform="matrix(1,0,0,-1,0,142.99326)" stroke-width=".7" stroke-linecap="butt" stroke-linejoin="round" fill="none" stroke="#000000" d="M350.43904 29.72125V26.72125"/>
<use data-text="1" xlink:href="#font_1_49" transform="matrix(9,0,0,-9,343.68904,126.272)"/>
<use data-text="0" xlink:href="#font_1_48" transform="matrix(9,0,0,-9,348.18904,126.272)"/>
<use data-text="0" xlink:href="#font_1_48" transform="matrix(9,0,0,-9,352.68904,126.272)"/>
<path transform="matrix(1,0,0,-1,0,142.99326)" d="M382.36125 29.72125V26.72125"/>
<path transform="matrix(1,0,0,-1,0,142.99326)" stroke-width=".7" stroke-linecap="butt" stroke-linejoin="round" fill="none" stroke="#000000" d="M382.36125 29.72125V26.72125"/>
<use data-text="1" xlink:href="#font_1_49" transform="matrix(9,0,0,-9,375.61125,126.272)"/>
<use data-text="5" xlink:href="#font_1_53" transform="matrix(9,0,0,-9,380.11125,126.272)"/>
<use data-text="0" xlink:href="#font_1_48" transform="matrix(9,0,0,-9,384.61125,126.272)"/>
<use data-text="R" xlink:href="#font_1_82" transform="matrix(10,0,0,-10,318.58515,139.38138)"/>
<use data-text="L" xlink:href="#font_1_76" transform="matrix(10,0,0,-10,325.25517,139.38138)"/>
<use data-text=" " xlink:href="#font_1_32" transform="matrix(10,0,0,-10,331.36515,139.38138)"/>
<use data-text="S" xlink:href="#font_1_83" transform="matrix(10,0,0,-10,333.86515,139.38138)"/>
<use data-text="t" xlink:href="#font_1_116" transform="matrix(10,0,0,-10,339.42515,139.38138)"/>
<use data-text="e" xlink:href="#font_1_101" transform="matrix(10,0,0,-10,342.20515,139.38138)"/>
<use data-text="p" xlink:href="#font_1_112" transform="matrix(10,0,0,-10,346.64515,139.38138)"/>
<g clip-path="url(#clip_23)">
<path transform="matrix(1,0,0,-1,0,142.99326)" stroke-width=".6" stroke-linecap="square" stroke-linejoin="round" fill="none" stroke="#e9ebed" d="M286.59465 44.182279H383.63813"/>
</g>
<path transform="matrix(1,0,0,-1,0,142.99326)" d="M283.59465 44.182279H280.59465"/>
<path transform="matrix(1,0,0,-1,0,142.99326)" stroke-width=".7" stroke-linecap="butt" stroke-linejoin="round" fill="none" stroke="#000000" d="M283.59465 44.182279H280.59465"/>
<use data-text="4" xlink:href="#font_1_52" transform="matrix(7,0,0,-7,272.59465,101.39692)"/>
<use data-text="0" xlink:href="#font_1_48" transform="matrix(7,0,0,-7,276.09465,101.39692)"/>
<g clip-path="url(#clip_24)">
<path transform="matrix(1,0,0,-1,0,142.99326)" stroke-width=".6" stroke-linecap="square" stroke-linejoin="round" fill="none" stroke="#e9ebed" d="M286.59465 70.14323H383.63813"/>
</g>
<path transform="matrix(1,0,0,-1,0,142.99326)" d="M283.59465 70.14323H280.59465"/>
<path transform="matrix(1,0,0,-1,0,142.99326)" stroke-width=".7" stroke-linecap="butt" stroke-linejoin="round" fill="none" stroke="#000000" d="M283.59465 70.14323H280.59465"/>
<use data-text="6" xlink:href="#font_1_54" transform="matrix(7,0,0,-7,272.59465,75.43597)"/>
<use data-text="0" xlink:href="#font_1_48" transform="matrix(7,0,0,-7,276.09465,75.43597)"/>
<g clip-path="url(#clip_25)">
<path transform="matrix(1,0,0,-1,0,142.99326)" stroke-width=".6" stroke-linecap="square" stroke-linejoin="round" fill="none" stroke="#e9ebed" d="M286.59465 96.10417H383.63813"/>
</g>
<path transform="matrix(1,0,0,-1,0,142.99326)" d="M283.59465 96.10417H280.59465"/>
<path transform="matrix(1,0,0,-1,0,142.99326)" stroke-width=".7" stroke-linecap="butt" stroke-linejoin="round" fill="none" stroke="#000000" d="M283.59465 96.10417H280.59465"/>
<use data-text="8" xlink:href="#font_1_56" transform="matrix(7,0,0,-7,272.59465,49.47502)"/>
<use data-text="0" xlink:href="#font_1_48" transform="matrix(7,0,0,-7,276.09465,49.47502)"/>
<use data-text="T" xlink:href="#font_1_84" transform="matrix(0,-10,-10,-0,270.42277,113.27476)"/>
<use data-text="o" xlink:href="#font_1_111" transform="matrix(0,-10,-10,-0,270.42277,107.16476)"/>
<use data-text="o" xlink:href="#font_1_111" transform="matrix(0,-10,-10,-0,270.42277,102.16476)"/>
<use data-text="l" xlink:href="#font_1_108" transform="matrix(0,-10,-10,-0,270.42277,97.16476)"/>
<use data-text=" " xlink:href="#font_1_32" transform="matrix(0,-10,-10,-0,270.42277,94.38476)"/>
<use data-text="C" xlink:href="#font_1_67" transform="matrix(0,-10,-10,-0,270.42277,91.88476)"/>
<use data-text="a" xlink:href="#font_1_97" transform="matrix(0,-10,-10,-0,270.42277,85.21475)"/>
<use data-text="l" xlink:href="#font_1_108" transform="matrix(0,-10,-10,-0,270.42277,80.77476)"/>
<use data-text="l" xlink:href="#font_1_108" transform="matrix(0,-10,-10,-0,270.42277,77.99476)"/>
<use data-text="s" xlink:href="#font_1_115" transform="matrix(0,-10,-10,-0,270.42277,75.21476)"/>
<use data-text=" " xlink:href="#font_1_32" transform="matrix(0,-10,-10,-0,270.42277,71.32476)"/>
<use data-text="p" xlink:href="#font_1_112" transform="matrix(0,-10,-10,-0,270.42277,68.82476)"/>
<use data-text="e" xlink:href="#font_1_101" transform="matrix(0,-10,-10,-0,270.42277,63.82476)"/>
<use data-text="r" xlink:href="#font_1_114" transform="matrix(0,-10,-10,-0,270.42277,59.384759)"/>
<use data-text=" " xlink:href="#font_1_32" transform="matrix(0,-10,-10,-0,270.42277,56.054758)"/>
<use data-text="E" xlink:href="#font_1_69" transform="matrix(0,-10,-10,-0,270.42277,53.554758)"/>
<use data-text="p" xlink:href="#font_1_112" transform="matrix(0,-10,-10,-0,270.42277,47.444757)"/>
<use data-text="i" xlink:href="#font_1_105" transform="matrix(0,-10,-10,-0,270.42277,42.444757)"/>
<use data-text="s" xlink:href="#font_1_115" transform="matrix(0,-10,-10,-0,270.42277,39.664758)"/>
<use data-text="o" xlink:href="#font_1_111" transform="matrix(0,-10,-10,-0,270.42277,35.774759)"/>
<use data-text="d" xlink:href="#font_1_100" transform="matrix(0,-10,-10,-0,270.42277,30.774758)"/>
<use data-text="e" xlink:href="#font_1_101" transform="matrix(0,-10,-10,-0,270.42277,25.774758)"/>
<g clip-path="url(#clip_26)">
<path transform="matrix(1,0,0,-1,0,142.99326)" stroke-width=".4" stroke-linecap="square" stroke-linejoin="round" fill="none" stroke="#4a7fc1" stroke-opacity=".35" d="M287.2331 110.09868 287.87153 108.79557 288.50999 106.2858 289.1484 114.53541 289.78688 108.52688 290.42533 107.97417 291.06376 108.263248 291.7022 108.278438 292.34065 104.45529 292.9791 112.40077 293.61753 106.56462 294.25599 105.72803 294.8944 107.49753 295.53288 107.72572 296.1713 104.85081 296.80976 113.29824 297.44819 107.34033 298.08665 105.94597 298.72508 108.648639 299.36354 109.038959 300.00199 103.59326 300.6404 113.11067 301.27888 107.4874 301.9173 104.54148 302.55577 107.33021 303.19419 109.08971 303.83265 106.4378 304.47108 113.01423 305.10954 106.19441 305.74797 106.2148 306.3864 107.928607 307.02485 107.59397 307.6633 104.38935 308.30174 112.415958 308.9402 106.001789 309.5786 105.22088 310.21708 107.3759 310.85554 108.72976 311.49397 104.02434 312.13243 112.56303 312.77085 106.37705 313.4093 105.073947 314.04774 107.908359 314.6862 107.65978 315.32463 104.40454 315.96308 111.10272 316.6015 105.84459 317.23997 107.3759 317.8784 108.28855 318.51686 109.5866 319.15528 103.81133 319.79374 113.105609 320.4322 106.75219 321.07063 106.46324 321.70909 106.56462 322.3475 107.91342 322.98597 103.116619 323.6244 111.76693 324.26286 105.83953 324.90129 106.56968 325.53974 106.93988 326.17817 108.37981 326.81663 104.32341 327.45506 112.664409 328.0935 105.96635 328.73194 106.53424 329.3704 107.34553 330.00883 108.34437 330.64729 102.51328 331.28575 111.66556 331.92417 106.53424 332.56263 106.98544 333.20106 105.342639 333.8395 106.69131 334.47795 104.480609 335.1164 111.44749 335.75483 105.89028 336.39329 106.153919 337.0317 106.169109 337.67018 107.34553 338.3086 103.431 338.94706 112.18776 339.58549 105.47452 340.22395 105.71777 340.8624 107.49246 341.50083 106.99557 342.13929 103.01018 342.7777 112.512279 343.41618 107.538158 344.0546 104.91168 344.69306 106.71675 345.33149 108.01479 345.96995 102.98486 346.60838 111.47279 347.24684 104.87612 347.88526 104.07497 348.5237 106.828258 349.16215 108.01479 349.8006 103.912708 350.43904 112.54784 351.07749 106.11835 351.71595 104.35391 352.35438 106.879009 352.99284 108.496509 353.63127 103.34988 354.2697 111.70099 354.90815 106.153919 355.5466 105.24632 356.18504 105.55552 356.8235 107.4874 357.4619 104.7798 358.10038 112.37546 358.7388 105.56577 359.37727 104.93193 360.0157 105.93078 360.65415 107.47221 361.29258 101.64113 361.93104 113.13599 362.5695 107.59164 363.20793 109.33647 363.84638 99.20767 364.4848 108.39435 365.12327 114.74725 365.7617 110.32714 366.40016 101.48225 367.03858 103.91777 368.31547 106.792819 368.95393 103.420879 369.59236 111.031719 370.2308 104.35391 370.86924 105.210758 371.5077 104.7088 372.14616 106.44805 372.78459 103.08118 373.42304 111.99007 374.06147 104.886249 374.69993 104.80006 375.9768 107.12239 376.61524 102.84286 377.2537 111.48811 377.89213 105.50996 378.53059 105.515018 379.169 105.27163 379.80747 105.35783 380.4459 104.35391 381.08436 110.996288 381.72279 105.91053 382.36125 105.631587"/>
</g>
<g clip-path="url(#clip_27)">
<path transform="matrix(1,0,0,-1,0,142.99326)" stroke-width="1.3" stroke-linecap="round" stroke-linejoin="round" fill="none" stroke="#4a7fc1" d="M287.2331 109.64847 288.50999 109.211399 289.1484 109.09477 289.78688 108.57928 290.42533 108.83506 291.06376 108.58718 291.7022 108.52521 292.34065 107.74322 292.9791 107.6542 293.61753 107.30716 294.25599 107.8666 294.8944 107.76237 295.53288 107.928 296.1713 107.5111 296.80976 107.786029 297.44819 107.54883 298.08665 108.17251 299.36354 108.11166 300.00199 107.44855 300.6404 107.64292 301.27888 107.69757 301.9173 108.18263 302.55577 107.86658 303.19419 108.15786 303.83265 107.58207 305.10954 107.57701 305.74797 108.14209 306.3864 107.79899 307.02485 107.66377 307.6633 107.03729 308.30174 107.319 308.9402 107.075618 309.5786 107.59055 310.21708 107.45534 310.85554 107.5314 311.49397 107.03056 312.13243 107.21478 312.77085 107.12408 313.4093 107.53817 314.04774 107.21759 314.6862 107.58999 315.32463 107.11505 315.96308 107.471668 316.6015 107.331378 317.23997 107.90885 317.8784 107.80801 318.51686 108.03675 319.15528 107.53252 319.79374 107.76238 320.4322 107.28913 321.07063 107.67561 321.70909 107.25928 322.3475 107.56576 322.98597 106.88068 323.6244 107.06152 324.26286 106.82377 324.90129 107.50152 325.53974 107.28518 326.17817 107.66492 326.81663 107.173648 327.45506 107.451969 328.0935 107.00125 328.73194 107.52633 329.3704 107.321269 330.00883 107.61705 330.64729 106.80352 331.28575 106.88407 331.92417 106.65588 332.56263 107.11166 333.20106 106.83898 333.8395 107.2435 334.47795 106.63278 335.1164 106.72292 335.75483 106.32799 336.39329 107.088558 337.0317 106.953357 337.67018 107.09082 338.3086 106.65137 338.94706 106.77418 339.58549 106.42487 340.22395 107.12967 340.8624 107.15108 341.50083 107.3156 342.13929 106.70771 342.7777 106.98996 343.41618 106.6863 344.0546 107.12856 344.69306 106.89307 345.33149 107.011379 345.96995 106.37982 346.60838 106.43278 347.24684 106.321788 347.88526 106.96968 348.5237 106.758968 349.16215 106.91108 349.8006 106.40066 350.43904 106.802928 351.07749 106.72236 351.71595 107.26378 352.35438 107.057018 352.99284 107.20519 353.63127 106.42827 354.90815 106.6277 355.5466 107.23842 356.18504 106.91278 356.8235 107.08857 357.4619 106.44743 358.10038 106.59391 358.7388 106.19334 359.37727 107.03561 360.0157 107.04719 360.65415 107.55348 361.29258 106.0904 361.93104 106.404689 362.5695 107.49528 363.20793 107.98376 363.84638 107.31821 364.4848 107.57117 365.12327 106.70355 365.7617 106.61479 366.40016 105.957508 367.03858 107.27129 367.67704 106.82235 368.31547 105.76274 368.95393 105.13848 369.59236 105.69024 370.2308 105.59728 370.86924 106.33758 371.5077 106.12573 372.14616 106.27898 372.78459 105.724597 373.42304 106.0322 374.06147 105.769107 374.69993 106.52236 375.33836 106.41813 375.9768 106.68855 376.61524 105.94206 377.89213 105.944889 378.53059 106.49533 379.169 106.36068 379.80747 106.67054 380.4459 106.068347 381.72279 106.25363 382.36125 106.45003"/>
</g>
<g clip-path="url(#clip_28)">
<path transform="matrix(1,0,0,-1,0,142.99326)" stroke-width=".4" stroke-linecap="square" stroke-linejoin="round" fill="none" stroke="#c98fd8" stroke-opacity=".35" d="M287.2331 42.38474 287.87153 46.44114 288.50999 43.097238 289.1484 40.812936 289.78688 45.49551 290.42533 42.800504 291.06376 42.765069 291.7022 43.74873 292.34065 46.489297 292.9791 45.034055 293.61753 44.263406 294.25599 44.752767 294.8944 40.731809 295.53288 47.23723 296.1713 43.870485 296.80976 46.67946 297.44819 48.258924 298.08665 44.141778 298.72508 46.038095 299.36354 47.148576 300.00199 44.85661 300.6404 45.81496 301.9173 49.08033 302.55577 47.381704 303.19419 46.182569 303.83265 45.769399 304.47108 51.02234 305.10954 48.16261 305.74797 44.281187 306.3864 47.863409 307.02485 47.128194 307.6633 47.78994 308.30174 46.385454 308.9402 51.44576 309.5786 49.742074 310.21708 47.338609 310.85554 48.738164 311.49397 41.09435 312.13243 48.738164 312.77085 45.766805 314.04774 51.100999 314.6862 47.06238 315.32463 47.272798 315.96308 49.4125 316.6015 46.11922 317.23997 50.47988 317.8784 48.558126 318.51686 48.994138 319.79374 48.00801 320.4322 49.209615 321.07063 53.263547 321.70909 47.911569 322.3475 44.87699 322.98597 49.12602 323.6244 47.34367 324.26286 46.550176 324.90129 45.318067 325.53974 51.14656 326.17817 50.19587 326.81663 47.774755 327.45506 48.654439 328.0935 42.29102 328.73194 50.332815 329.3704 46.783433 330.00883 48.76088 330.64729 48.82682 331.28575 45.37635 331.92417 46.415826 332.56263 48.182859 333.20106 44.773019 333.8395 45.6553 334.47795 47.32342 335.1164 48.251398 335.75483 46.90519 336.39329 46.15972 337.0317 47.21698 337.67018 51.116186 338.3086 46.453859 338.94706 44.874395 339.58549 47.827974 340.22395 46.608457 340.8624 45.90621 341.50083 44.11387 342.13929 49.049955 342.7777 47.98257 343.41618 47.358987 344.0546 46.451265 344.69306 39.92559 345.33149 50.221185 345.96995 45.74655 347.24684 49.300996 347.88526 45.333257 348.5237 44.194997 349.16215 48.87757 349.8006 43.847639 350.43904 46.841718 351.71595 48.97895 352.99284 46.428548 353.63127 46.915315 354.2697 49.76232 354.90815 46.889875 355.5466 44.68683 356.18504 48.334989 356.8235 46.874689 357.4619 46.08119 358.10038 45.9214 358.7388 48.989076 359.37727 48.8446 360.0157 48.40093 360.65415 49.947423 361.29258 41.768686 361.93104 51.93006 362.5695 47.13079 363.20793 48.203237 363.84638 49.53166 364.4848 46.88481 365.12327 46.111566 365.7617 50.32775 366.40016 45.543668 367.03858 47.53137 367.67704 48.38068 368.31547 50.500135 368.95393 48.357835 369.59236 47.374174 370.2308 48.334989 370.86924 51.1415 371.5077 48.588499 372.14616 44.663984 372.78459 47.346269 373.42304 46.2942 374.06147 46.502016 374.69993 46.012784 375.33836 50.41641 375.9768 48.943517 376.61524 48.864854 377.2537 48.233613 377.89213 41.63187 378.53059 51.79818 379.169 47.153638 379.80747 47.161165 380.4459 47.60237 381.08436 45.929059 381.72279 45.231878 382.36125 49.313589"/>
</g>
<g clip-path="url(#clip_29)">
<path transform="matrix(1,0,0,-1,0,142.99326)" stroke-width="1.3" stroke-linecap="round" stroke-linejoin="round" fill="none" stroke="#c98fd8" d="M287.2331 43.646314 288.50999 43.39959 289.1484 43.443235 290.42533 44.076055 291.06376 43.834085 291.7022 44.01803 292.34065 44.009016 293.61753 44.321428 294.8944 45.257493 295.53288 44.996656 296.1713 45.108217 296.80976 45.42879 297.44819 45.44033 298.08665 46.005125 298.72508 46.03189 299.36354 46.610765 300.00199 46.68879 300.6404 46.458086 301.27888 46.63893 301.9173 47.192739 302.55577 47.30541 303.19419 47.24147 303.83265 47.469076 305.10954 47.286817 305.74797 47.17612 307.02485 48.202329 307.6633 47.793027 308.30174 47.856977 308.9402 47.502885 309.5786 47.60008 310.21708 47.44881 310.85554 47.50092 311.49397 48.02487 312.13243 47.53783 312.77085 47.263467 313.4093 47.493898 314.04774 47.202905 314.6862 48.245744 315.32463 48.22574 315.96308 48.584329 316.6015 48.606874 317.23997 48.263208 317.8784 48.50179 318.51686 49.167428 321.70909 48.30571 322.3475 47.956407 322.98597 48.305135 323.6244 48.41472 324.26286 47.80485 324.90129 47.887395 325.53974 47.600065 326.17817 47.734155 326.81663 47.6719 327.45506 47.917539 328.0935 48.3074 328.73194 47.666265 329.3704 47.246259 330.00883 47.291604 330.64729 46.860338 331.28575 47.234144 331.92417 46.89977 332.56263 47.062875 333.8395 46.56034 334.47795 46.764856 335.1164 47.28712 335.75483 47.09501 336.39329 47.106275 337.0317 47.34768 337.67018 47.268239 338.94706 46.697519 339.58549 47.018655 340.22395 47.103719 340.8624 46.686254 341.50083 46.685964 342.13929 46.136098 342.7777 46.402009 343.41618 46.306245 344.0546 46.502016 344.69306 47.078367 345.96995 46.244558 346.60838 46.41329 347.24684 46.123998 347.88526 46.892454 348.5237 46.63583 349.16215 46.994989 349.8006 46.99894 350.43904 46.679777 351.07749 46.85556 351.71595 47.47415 352.35438 47.253297 353.63127 47.51246 354.2697 47.39725 355.5466 46.87724 356.8235 47.376108 357.4619 47.224843 358.10038 47.564569 358.7388 47.24033 359.37727 47.639787 360.0157 47.66824 360.65415 47.904024 361.29258 48.305166 362.5695 47.767686 363.20793 47.981779 363.84638 47.49247 364.4848 48.132768 365.12327 47.73839 365.7617 48.112764 366.40016 48.12994 367.03858 47.89022 367.67704 48.05135 368.31547 48.610235 369.59236 48.31924 370.2308 48.29867 370.86924 48.06684 371.5077 47.622606 372.14616 47.362047 372.78459 47.70007 373.42304 47.767686 374.06147 47.514726 374.69993 47.475294 375.33836 47.13839 375.9768 47.63305 377.89213 47.9784 379.169 47.0674 379.80747 47.117265 380.4459 46.97772 381.08436 47.74141 381.72279 47.06528 382.36125 47.04761"/>
</g>
<g clip-path="url(#clip_30)">
<path transform="matrix(1,0,0,-1,0,142.99326)" stroke-width=".4" stroke-linecap="square" stroke-linejoin="round" fill="none" stroke="#6e429a" stroke-opacity=".35" d="M287.2331 40.399637 287.87153 42.739755 288.50999 41.314889 289.1484 37.425809 289.78688 43.104768 290.42533 39.162466 291.06376 40.19182 291.7022 39.312 292.34065 42.4634 293.61753 41.657186 294.25599 40.960004 294.8944 36.62725 295.53288 45.9214 296.1713 41.880319 296.80976 43.43434 297.44819 43.87295 298.08665 40.498548 298.72508 43.57375 299.36354 43.885675 300.00199 40.085378 300.6404 42.881635 301.27888 44.98343 301.9173 42.90201 302.55577 44.549886 303.19419 44.35725 303.83265 43.62204 304.47108 45.541204 305.10954 43.064268 305.74797 41.16782 306.3864 44.899709 307.02485 42.083074 307.6633 45.231878 308.30174 41.718065 308.9402 46.316915 309.5786 46.36507 310.21708 45.738897 310.85554 43.63969 311.49397 41.038534 312.13243 48.469339 312.77085 42.55206 314.04774 47.990228 314.6862 42.24027 315.32463 44.84402 315.96308 45.74149 316.6015 42.894353 317.23997 42.5775 317.8784 44.608167 318.51686 45.03159 319.15528 45.672956 319.79374 45.3966 320.4322 44.86427 321.07063 46.889875 321.70909 44.79833 322.3475 41.180543 322.98597 46.562898 323.6244 43.381124 324.26286 44.874395 324.90129 41.936006 325.53974 46.309389 326.81663 45.60208 327.45506 44.99096 328.0935 39.935716 328.73194 47.326017 329.3704 43.018579 330.00883 46.41336 330.64729 45.94178 331.28575 42.33152 331.92417 46.210477 332.56263 46.08885 333.20106 43.92111 333.8395 43.3684 334.47795 45.419446 335.75483 46.537584 336.39329 45.229284 337.0317 45.911275 337.67018 48.106794 338.3086 44.85661 338.94706 40.09797 339.58549 46.11922 340.22395 44.696954 340.8624 45.11531 341.50083 42.628126 342.13929 47.55668 342.7777 45.52342 343.41618 44.648794 344.0546 44.131525 344.69306 39.393129 345.33149 47.176355 345.96995 43.46225 346.60838 45.751615 347.24684 45.918935 347.88526 42.73469 348.5237 44.01236 349.16215 46.015249 349.8006 42.29102 350.43904 43.3684 351.07749 46.555238 351.71595 44.42566 352.35438 46.6313 352.99284 43.981988 353.63127 44.042867 354.2697 46.484235 355.5466 41.10954 356.18504 44.440847 356.8235 43.43434 357.4619 43.725885 358.10038 42.354368 358.7388 46.337297 359.37727 46.010187 360.0157 44.56507 360.65415 44.86427 361.29258 39.847059 361.93104 48.24127 362.5695 42.937448 363.20793 45.011339 363.84638 45.84793 364.4848 42.055166 365.7617 46.324575 366.40016 43.0287 367.03858 42.666158 367.67704 44.636075 368.31547 45.43723 368.95393 44.960588 369.59236 44.823644 370.86924 46.143236 372.14616 40.58344 372.78459 45.37635 373.42304 43.925004 374.06147 43.78806 374.69993 42.31257 375.33836 46.727617 375.9768 44.909833 376.61524 46.015249 377.2537 45.82768 377.89213 40.09797 378.53059 48.76594 379.169 43.558565 379.80747 45.485387 380.4459 45.17606 381.08436 43.216398 381.72279 44.49407 382.36125 46.702306"/>
</g>
<g clip-path="url(#clip_31)">
<path transform="matrix(1,0,0,-1,0,142.99326)" stroke-width="1.3" stroke-linecap="round" stroke-linejoin="round" fill="none" stroke="#6e429a" d="M287.2331 40.99697 287.87153 40.69122 289.1484 40.456396 290.42533 40.86138 292.34065 40.612936 294.25599 41.588159 294.8944 42.09493 295.53288 41.876615 296.80976 42.294916 297.44819 42.197736 298.08665 42.892667 298.72508 42.78845 300.6404 43.079729 301.27888 43.426786 301.9173 43.64539 302.55577 43.554124 303.83265 43.898626 304.47108 43.576364 305.10954 43.835237 305.74797 43.520589 307.6633 44.065076 308.9402 44.114648 309.5786 44.511274 310.85554 44.585638 311.49397 45.282545 312.13243 44.829584 312.77085 44.660577 314.6862 44.749048 315.32463 44.320028 315.96308 44.59553 316.6015 44.622285 317.23997 44.334104 318.51686 44.852979 319.79374 44.55776 320.4322 45.00058 321.07063 44.864244 321.70909 44.846776 322.3475 44.431558 323.6244 44.65608 324.26286 44.51299 324.90129 44.534395 325.53974 44.396078 326.17817 44.48087 326.81663 44.440587 327.45506 44.611585 328.0935 45.056669 328.73194 44.614686 330.00883 44.695249 330.64729 44.576379 331.28575 44.957788 331.92417 44.745946 332.56263 45.082284 333.8395 45.01692 334.47795 45.414674 335.1164 45.625375 335.75483 45.488458 336.39329 45.063665 337.0317 45.369314 338.3086 45.185667 338.94706 44.75128 339.58549 45.009885 340.22395 44.966787 340.8624 44.582567 342.13929 44.423685 342.7777 44.54114 343.41618 44.403955 344.0546 44.474657 344.69306 44.840299 345.33149 44.304525 345.96995 44.136629 346.60838 44.288457 347.24684 44.083959 347.88526 44.525655 348.5237 44.45664 349.8006 44.661428 350.43904 44.446214 351.07749 44.591566 351.71595 44.86622 352.99284 44.505086 353.63127 44.624246 354.2697 44.27748 354.90815 44.199728 355.5466 43.72451 356.8235 44.204805 357.4619 43.991567 358.10038 44.093534 358.7388 43.95326 359.37727 44.375528 360.0157 44.320318 360.65415 44.463144 361.29258 44.85132 361.93104 44.375528 362.5695 44.16566 363.20793 44.36116 363.84638 44.157209 364.4848 44.470445 365.12327 44.069868 365.7617 44.34762 367.03858 44.22817 367.67704 44.602125 368.31547 44.82677 369.59236 44.21999 370.2308 44.521127 371.5077 44.258878 372.14616 43.96465 372.78459 44.176206 374.06147 44.105215 374.69993 44.38509 375.33836 44.331148 375.9768 44.707769 376.61524 44.667055 377.2537 44.855646 377.89213 45.173814 378.53059 44.783678 379.169 44.73748 379.80747 44.81382 380.4459 44.687086 381.08436 45.342676 381.72279 44.77213 382.36125 45.014844"/>
</g>
<path transform="matrix(1,0,0,-1,0,142.99326)" stroke-width=".7" stroke-linecap="square" stroke-miterlimit="10" stroke-linejoin="miter" fill="none" stroke="#000000" d="M283.59465 32.72125V118.65325"/>
<path transform="matrix(1,0,0,-1,0,142.99326)" stroke-width=".7" stroke-linecap="square" stroke-miterlimit="10" stroke-linejoin="miter" fill="none" stroke="#000000" d="M286.59465 29.72125H383.63813"/>
<path transform="matrix(1,0,0,-1,0,142.99326)" stroke-width="1.3" stroke-linecap="round" stroke-linejoin="round" fill="none" stroke="#4a7fc1" d="M116.982189 133.897H123.982189 130.9822"/>
<use data-text="D" xlink:href="#font_1_68" transform="matrix(10,0,0,-10,138.9822,12.596252)"/>
<use data-text="T" xlink:href="#font_1_84" transform="matrix(10,0,0,-10,146.2022,12.596252)"/>
<use data-text="C" xlink:href="#font_1_67" transform="matrix(10,0,0,-10,152.3122,12.596252)"/>
<path transform="matrix(1,0,0,-1,0,142.99326)" stroke-width="1.3" stroke-linecap="round" stroke-linejoin="round" fill="none" stroke="#c98fd8" d="M174.9822 133.897H181.9822 188.9822"/>
<use data-text="H" xlink:href="#font_1_72" transform="matrix(10,0,0,-10,196.9822,12.596252)"/>
<use data-text="y" xlink:href="#font_1_121" transform="matrix(10,0,0,-10,204.2022,12.596252)"/>
<use data-text="b" xlink:href="#font_1_98" transform="matrix(10,0,0,-10,209.2022,12.596252)"/>
<use data-text="r" xlink:href="#font_1_114" transform="matrix(10,0,0,-10,214.2022,12.596252)"/>
<use data-text="i" xlink:href="#font_1_105" transform="matrix(10,0,0,-10,217.5322,12.596252)"/>
<use data-text="d" xlink:href="#font_1_100" transform="matrix(10,0,0,-10,220.3122,12.596252)"/>
<path transform="matrix(1,0,0,-1,0,142.99326)" stroke-width="1.3" stroke-linecap="round" stroke-linejoin="round" fill="none" stroke="#6e429a" d="M241.31032 133.897H248.31032 255.31032"/>
<use data-text="P" xlink:href="#font_1_80" transform="matrix(10,0,0,-10,263.3103,12.596252)"/>
<use data-text="T" xlink:href="#font_1_84" transform="matrix(10,0,0,-10,268.8703,12.596252)"/>
<use data-text="C" xlink:href="#font_1_67" transform="matrix(10,0,0,-10,274.98033,12.596252)"/>
</svg>
